<?xml version="1.0" encoding="UTF-8"?>
<svg width="1157px" height="508px" viewBox="0 0 1157 508" version="1.1" xmlns="http://www.w3.org/2000/svg" xmlns:xlink="http://www.w3.org/1999/xlink">
    <title>remake-gives-a-loophole copy 2</title>
    <defs>
        <polygon id="path-1" points="74.1391793 410 74.1391793 370.026708 67.457929 370.026708 55.351732 376.25112 57.2361872 382.932371 66.2016256 378.763727 66.2016256 410"></polygon>
        <filter x="-8.0%" y="-3.8%" width="131.9%" height="115.0%" filterUnits="objectBoundingBox" id="filter-2">
            <feOffset dx="2" dy="2" in="SourceAlpha" result="shadowOffsetOuter1"></feOffset>
            <feGaussianBlur stdDeviation="0.5" in="shadowOffsetOuter1" result="shadowBlurOuter1"></feGaussianBlur>
            <feColorMatrix values="0 0 0 0 0   0 0 0 0 0   0 0 0 0 0  0 0 0 0.18 0" type="matrix" in="shadowBlurOuter1"></feColorMatrix>
        </filter>
        <path d="M221.397212,406 L221.397212,401.44794 L210.494293,401.44794 L216.294499,396.088256 C219.231312,393.371704 220.9934,391.095673 220.9934,387.865179 C220.9934,382.689046 217.212253,379.788943 211.852569,379.788943 C206.749856,379.788943 203.262391,383.386539 202.748448,387.241106 L207.263798,388.525962 C207.814451,385.992961 209.576539,384.304293 211.962699,384.304293 C214.495701,384.304293 216.000817,385.7727 216.000817,388.12215 C216.000817,389.957658 214.752672,391.352645 212.843743,393.114732 L202.821869,402.549245 L202.821869,406 L221.397212,406 Z" id="path-3"></path>
        <filter x="-5.4%" y="-3.8%" width="121.4%" height="115.3%" filterUnits="objectBoundingBox" id="filter-4">
            <feOffset dx="1" dy="1" in="SourceAlpha" result="shadowOffsetOuter1"></feOffset>
            <feGaussianBlur stdDeviation="0.5" in="shadowOffsetOuter1" result="shadowBlurOuter1"></feGaussianBlur>
            <feColorMatrix values="0 0 0 0 0   0 0 0 0 0   0 0 0 0 0  0 0 0 0.2 0" type="matrix" in="shadowBlurOuter1"></feColorMatrix>
        </filter>
        <path d="M357.34798,406.513942 C362.707664,406.513942 366.672362,402.659375 366.672362,397.813633 C366.672362,393.481833 363.88239,390.691861 359.917692,390.067788 L365.717898,383.680219 L365.717898,380.302884 L348.060308,380.302884 L348.060308,384.818234 L359.110068,384.818234 L353.897225,391.279223 L354.741558,394.252747 C355.512472,393.812225 356.283385,393.628674 357.38469,393.628674 C360.211373,393.628674 361.78991,395.537603 361.78991,397.813633 C361.78991,400.052953 360.101243,402.108722 357.091009,402.108722 C354.264326,402.108722 352.208557,399.942823 351.768035,397.446531 L347.252684,398.731387 C347.950178,402.549244 351.070542,406.513942 357.34798,406.513942 Z" id="path-5"></path>
        <filter x="-5.1%" y="-3.8%" width="120.6%" height="115.3%" filterUnits="objectBoundingBox" id="filter-6">
            <feOffset dx="1" dy="1" in="SourceAlpha" result="shadowOffsetOuter1"></feOffset>
            <feGaussianBlur stdDeviation="0.5" in="shadowOffsetOuter1" result="shadowBlurOuter1"></feGaussianBlur>
            <feColorMatrix values="0 0 0 0 0   0 0 0 0 0   0 0 0 0 0  0 0 0 0.2 0" type="matrix" in="shadowBlurOuter1"></feColorMatrix>
        </filter>
        <polygon id="path-7" points="508.933042 406 508.933042 401.007417 512.126827 401.007417 512.126827 396.565487 508.933042 396.565487 508.933042 391.315933 503.903749 391.315933 503.903749 396.565487 497.40605 396.565487 505.775968 380.302884 500.342863 380.302884 491.495713 397.336401 491.495713 401.007417 503.903749 401.007417 503.903749 406"></polygon>
        <filter x="-4.8%" y="-3.9%" width="119.4%" height="115.6%" filterUnits="objectBoundingBox" id="filter-8">
            <feOffset dx="1" dy="1" in="SourceAlpha" result="shadowOffsetOuter1"></feOffset>
            <feGaussianBlur stdDeviation="0.5" in="shadowOffsetOuter1" result="shadowBlurOuter1"></feGaussianBlur>
            <feColorMatrix values="0 0 0 0 0   0 0 0 0 0   0 0 0 0 0  0 0 0 0.2 0" type="matrix" in="shadowBlurOuter1"></feColorMatrix>
        </filter>
        <path d="M646.739932,406.513942 C652.136326,406.513942 656.027604,402.659375 656.027604,397.740213 C656.027604,392.931181 652.466718,389.260164 647.474135,389.260164 C645.748757,389.260164 644.28035,389.590556 643.068915,390.141208 L643.472727,384.818234 L654.816168,384.818234 L654.816168,380.302884 L638.994086,380.302884 L637.892782,393.518543 L641.857479,394.729979 C643.179045,393.738804 644.720872,393.261572 646.40954,393.261572 C649.493194,393.261572 651.181862,395.207211 651.181862,397.666792 C651.181862,400.126373 649.419774,402.108722 646.44625,402.108722 C643.949959,402.108722 642.114451,400.346634 641.380247,398.180735 L636.864897,399.42888 C637.856071,403.026477 640.976435,406.513942 646.739932,406.513942 Z" id="path-9"></path>
        <filter x="-5.2%" y="-3.8%" width="120.9%" height="115.3%" filterUnits="objectBoundingBox" id="filter-10">
            <feOffset dx="1" dy="1" in="SourceAlpha" result="shadowOffsetOuter1"></feOffset>
            <feGaussianBlur stdDeviation="0.5" in="shadowOffsetOuter1" result="shadowBlurOuter1"></feGaussianBlur>
            <feColorMatrix values="0 0 0 0 0   0 0 0 0 0   0 0 0 0 0  0 0 0 0.2 0" type="matrix" in="shadowBlurOuter1"></feColorMatrix>
        </filter>
        <path d="M789.972478,406.513942 C795.625844,406.513942 799.737382,402.549244 799.737382,397.409821 C799.737382,392.453949 796.029655,388.782932 790.706681,388.489251 C790.44971,388.489251 790.192739,388.489251 789.935768,388.525961 L795.258742,380.302884 L789.568666,380.302884 L782.116502,391.829876 C780.794936,393.959065 780.244284,395.611023 780.244284,397.409821 C780.244284,402.585955 784.355822,406.513942 789.972478,406.513942 Z M789.972478,401.998592 C787.109085,401.998592 785.236866,400.016243 785.236866,397.409821 C785.236866,394.87682 787.109085,392.85776 789.972478,392.85776 C792.872581,392.85776 794.7448,394.87682 794.7448,397.409821 C794.7448,400.016243 792.872581,401.998592 789.972478,401.998592 Z" id="path-11"></path>
        <filter x="-5.1%" y="-3.8%" width="120.5%" height="115.3%" filterUnits="objectBoundingBox" id="filter-12">
            <feOffset dx="1" dy="1" in="SourceAlpha" result="shadowOffsetOuter1"></feOffset>
            <feGaussianBlur stdDeviation="0.5" in="shadowOffsetOuter1" result="shadowBlurOuter1"></feGaussianBlur>
            <feColorMatrix values="0 0 0 0 0   0 0 0 0 0   0 0 0 0 0  0 0 0 0.2 0" type="matrix" in="shadowBlurOuter1"></feColorMatrix>
        </filter>
        <polygon id="path-13" points="936.087549 406 945.815743 383.790349 945.815743 380.302884 927.35053 380.302884 927.35053 384.854944 940.052247 384.854944 930.727865 406"></polygon>
        <filter x="-5.4%" y="-3.9%" width="121.7%" height="115.6%" filterUnits="objectBoundingBox" id="filter-14">
            <feOffset dx="1" dy="1" in="SourceAlpha" result="shadowOffsetOuter1"></feOffset>
            <feGaussianBlur stdDeviation="0.5" in="shadowOffsetOuter1" result="shadowBlurOuter1"></feGaussianBlur>
            <feColorMatrix values="0 0 0 0 0   0 0 0 0 0   0 0 0 0 0  0 0 0 0.2 0" type="matrix" in="shadowBlurOuter1"></feColorMatrix>
        </filter>
        <path d="M1080.27167,409.799466 C1089.63684,409.799466 1095.74705,404.374519 1095.74705,397.46485 C1095.74705,392.61095 1093.06312,389.127563 1088.83738,387.243108 C1092.09234,385.587072 1094.0339,382.731837 1094.0339,378.905821 C1094.0339,373.081142 1088.72317,368.227242 1080.27167,368.227242 C1071.76307,368.227242 1066.50944,373.081142 1066.50944,378.905821 C1066.50944,382.731837 1068.451,385.587072 1071.70597,387.243108 C1067.42311,389.127563 1064.7963,392.61095 1064.7963,397.46485 C1064.7963,404.374519 1070.8494,409.799466 1080.27167,409.799466 Z M1080.27167,384.730501 C1076.33145,384.730501 1074.10436,382.389208 1074.10436,379.591078 C1074.10436,376.792947 1076.33145,374.451655 1080.27167,374.451655 C1084.15479,374.451655 1086.43898,376.792947 1086.43898,379.591078 C1086.43898,382.389208 1084.15479,384.730501 1080.27167,384.730501 Z M1080.27167,403.17532 C1075.47488,403.17532 1072.67675,400.37719 1072.67675,396.836698 C1072.67675,393.239102 1075.47488,390.498076 1080.27167,390.498076 C1085.01136,390.498076 1087.8666,393.239102 1087.8666,396.836698 C1087.8666,400.37719 1085.01136,403.17532 1080.27167,403.17532 Z" id="path-15"></path>
        <filter x="-4.8%" y="-3.6%" width="119.4%" height="114.4%" filterUnits="objectBoundingBox" id="filter-16">
            <feOffset dx="2" dy="2" in="SourceAlpha" result="shadowOffsetOuter1"></feOffset>
            <feGaussianBlur stdDeviation="0.5" in="shadowOffsetOuter1" result="shadowBlurOuter1"></feGaussianBlur>
            <feColorMatrix values="0 0 0 0 0   0 0 0 0 0   0 0 0 0 0  0 0 0 0.18 0" type="matrix" in="shadowBlurOuter1"></feColorMatrix>
        </filter>
    </defs>
    <g id="remake-gives-a-loophole-copy-2" stroke="none" stroke-width="1" fill="none" fill-rule="evenodd">
        <path d="M102.183594,376.102486 C188.251002,360.28916 250.8002,349.446732 289.831186,343.575201 C503.737773,311.396684 641.703361,271.704951 703.72795,224.5 C822.229135,134.3125 762.385286,17.65625 674.497651,34.828125 C651.995956,39.2246055 632.683367,53.071856 619.729307,72.0831373" id="Path" stroke="#F76707" stroke-width="10" stroke-linecap="square"></path>
        <path id="Path" d="M627.940652,189.345847 L631.048588,193.262572 C654.041501,222.239008 692.7553,244.92552 746.863909,258.597672 C850.999056,284.910518 935.567588,312.203185 1000.59731,340.499481 L1010.24411,320.515038 L1047.13281,368.308594 L986.764749,369.143419 L996.244993,349.511431 C931.823708,321.515103 847.870862,294.434383 744.414108,268.292953 C688.865683,254.256989 648.492712,230.78335 623.953892,200.401226 L623.215139,199.478444 L620.107203,195.561719 L627.940652,189.345847 Z" fill="#F76707" fill-rule="nonzero"></path>
        <path d="M229.562316,172.448 C234.938316,172.448 238.522316,169.344 238.522316,165.504 C238.522316,161.856 235.930316,160.416 232.506316,159.36 L226.938316,157.568 C225.466316,157.12 224.794316,156.448 224.794316,155.456 C224.794316,154.144 226.202316,153.024 228.410316,153.024 C230.938316,153.024 233.018316,154.272 233.946316,156.096 L238.010316,154.912 C236.794316,151.808 233.210316,149.152 228.378316,149.152 C223.706316,149.152 220.314316,152.096 220.346316,155.584 C220.314316,158.464 222.458316,160.352 225.402316,161.28 L231.130316,163.072 C233.274316,163.776 234.074316,164.576 234.074316,165.76 C234.074316,167.232 232.442316,168.576 229.818316,168.576 C226.586316,168.576 224.314316,166.72 223.418316,164.384 L219.226316,165.664 C220.474316,169.152 224.090316,172.448 229.562316,172.448 Z M245.841895,172 L245.841895,167.872 L247.729895,165.76 L252.433895,172 L257.233895,172 L250.385895,162.784 L256.593895,155.808 L251.665895,155.808 L245.841895,162.496 L245.841895,148.64 L241.617895,148.64 L241.617895,172 L245.841895,172 Z M261.449473,153.536 C262.857473,153.536 263.977473,152.448 263.977473,151.04 C263.977473,149.696 262.857473,148.608 261.449473,148.608 C260.041473,148.608 258.921473,149.696 258.921473,151.04 C258.921473,152.448 260.041473,153.536 261.449473,153.536 Z M263.529473,172 L263.529473,155.808 L259.273473,155.808 L259.273473,172 L263.529473,172 Z M271.809052,178.72 L271.809052,170.016 C272.993052,171.488 274.753052,172.448 277.057052,172.448 C281.537052,172.448 285.025052,168.8 285.025052,163.904 C285.025052,158.976 281.537052,155.36 277.057052,155.36 C274.753052,155.36 272.993052,156.288 271.809052,157.76 L271.809052,155.808 L267.585052,155.808 L267.585052,178.72 L271.809052,178.72 Z M276.321052,168.672 C273.761052,168.672 271.713052,166.688 271.713052,163.872 C271.713052,161.088 273.761052,159.136 276.321052,159.136 C278.977052,159.136 280.865052,161.088 280.865052,163.872 C280.865052,166.688 278.977052,168.672 276.321052,168.672 Z M302.25621,172.256 C303.60021,172.256 304.75221,172 306.03221,171.488 L305.00821,168.064 C304.36821,168.384 303.82421,168.512 303.08821,168.512 C301.74421,168.512 301.10421,167.776 301.10421,166.464 L301.10421,159.52 L305.84021,159.52 L305.84021,155.808 L301.10421,155.808 L301.10421,150.56 L296.84821,150.56 L296.84821,155.808 L294.12821,155.808 L294.12821,159.52 L296.84821,159.52 L296.84821,166.464 C296.84821,169.952 298.54421,172.256 302.25621,172.256 Z M315.687789,172.448 C320.679789,172.448 324.327789,168.736 324.327789,163.904 C324.327789,159.04 320.679789,155.36 315.687789,155.36 C310.695789,155.36 307.015789,159.04 307.015789,163.904 C307.015789,168.736 310.695789,172.448 315.687789,172.448 Z M315.687789,168.608 C312.967789,168.608 311.143789,166.592 311.143789,163.904 C311.143789,161.216 312.967789,159.2 315.687789,159.2 C318.375789,159.2 320.231789,161.216 320.231789,163.904 C320.231789,166.592 318.375789,168.608 315.687789,168.608 Z M341.558947,172.256 C342.902947,172.256 344.054947,172 345.334947,171.488 L344.310947,168.064 C343.670947,168.384 343.126947,168.512 342.390947,168.512 C341.046947,168.512 340.406947,167.776 340.406947,166.464 L340.406947,159.52 L345.142947,159.52 L345.142947,155.808 L340.406947,155.808 L340.406947,150.56 L336.150947,150.56 L336.150947,155.808 L333.430947,155.808 L333.430947,159.52 L336.150947,159.52 L336.150947,166.464 C336.150947,169.952 337.846947,172.256 341.558947,172.256 Z M352.142526,172 L352.142526,164 C352.142526,161.152 353.678526,159.296 356.046526,159.296 C358.382526,159.296 359.502526,160.864 359.502526,163.328 L359.502526,172 L363.726526,172 L363.726526,162.528 C363.726526,158.208 361.582526,155.36 357.358526,155.36 C355.022526,155.36 353.262526,156.416 352.142526,157.856 L352.142526,148.64 L347.918526,148.64 L347.918526,172 L352.142526,172 Z M375.366105,172.448 C379.622105,172.448 382.246105,169.952 383.174105,167.84 L379.366105,166.72 C378.726105,167.936 377.478105,168.864 375.430105,168.864 C372.486105,168.864 371.014105,167.264 370.726105,165.184 L383.302105,165.184 C383.398105,164.672 383.398105,164.192 383.398105,163.68 C383.398105,159.04 380.358105,155.36 375.046105,155.36 C369.958105,155.36 366.566105,159.072 366.566105,163.904 C366.566105,169.024 370.182105,172.448 375.366105,172.448 Z M379.270105,162.528 L370.726105,162.528 C370.950105,160.672 372.550105,158.944 375.014105,158.944 C377.542105,158.944 379.078105,160.544 379.270105,162.528 Z M398.357263,178.72 L398.357263,170.016 C399.541263,171.488 401.301263,172.448 403.605263,172.448 C408.085263,172.448 411.573263,168.8 411.573263,163.904 C411.573263,158.976 408.085263,155.36 403.605263,155.36 C401.301263,155.36 399.541263,156.288 398.357263,157.76 L398.357263,155.808 L394.133263,155.808 L394.133263,178.72 L398.357263,178.72 Z M402.869263,168.672 C400.309263,168.672 398.261263,166.688 398.261263,163.872 C398.261263,161.088 400.309263,159.136 402.869263,159.136 C405.525263,159.136 407.413263,161.088 407.413263,163.872 C407.413263,166.688 405.525263,168.672 402.869263,168.672 Z M421.612842,172.448 C423.884842,172.448 425.676842,171.488 426.828842,170.016 L426.828842,172 L431.084842,172 L431.084842,155.808 L426.828842,155.808 L426.828842,157.76 C425.676842,156.288 423.884842,155.36 421.612842,155.36 C417.132842,155.36 413.612842,158.976 413.612842,163.904 C413.612842,168.8 417.132842,172.448 421.612842,172.448 Z M422.348842,168.672 C419.692842,168.672 417.804842,166.688 417.804842,163.872 C417.804842,161.088 419.692842,159.136 422.348842,159.136 C424.908842,159.136 426.956842,161.088 426.956842,163.872 C426.956842,166.688 424.908842,168.672 422.348842,168.672 Z M439.300421,172 L439.300421,164.96 C439.300421,160.608 441.188421,159.008 444.644421,159.552 L444.644421,155.584 C442.116421,155.232 440.260421,156.32 439.300421,158.208 L439.300421,155.808 L435.076421,155.808 L435.076421,172 L439.300421,172 Z M454.364,172.256 C455.708,172.256 456.86,172 458.14,171.488 L457.116,168.064 C456.476,168.384 455.932,168.512 455.196,168.512 C453.852,168.512 453.212,167.776 453.212,166.464 L453.212,159.52 L457.948,159.52 L457.948,155.808 L453.212,155.808 L453.212,150.56 L448.956,150.56 L448.956,155.808 L446.236,155.808 L446.236,159.52 L448.956,159.52 L448.956,166.464 C448.956,169.952 450.652,172.256 454.364,172.256 Z M476.171158,172 L479.499158,161.792 L482.827158,172 L486.763158,172 L492.363158,155.808 L487.979158,155.808 L484.619158,166.656 L481.259158,155.808 L477.707158,155.808 L474.379158,166.656 L471.019158,155.808 L466.635158,155.808 L472.203158,172 L476.171158,172 Z M498.626737,172 L498.626737,164 C498.626737,161.152 500.162737,159.296 502.530737,159.296 C504.866737,159.296 505.986737,160.864 505.986737,163.328 L505.986737,172 L510.210737,172 L510.210737,162.528 C510.210737,158.208 508.066737,155.36 503.842737,155.36 C501.506737,155.36 499.746737,156.416 498.626737,157.856 L498.626737,148.64 L494.402737,148.64 L494.402737,172 L498.626737,172 Z M521.850316,172.448 C526.106316,172.448 528.730316,169.952 529.658316,167.84 L525.850316,166.72 C525.210316,167.936 523.962316,168.864 521.914316,168.864 C518.970316,168.864 517.498316,167.264 517.210316,165.184 L529.786316,165.184 C529.882316,164.672 529.882316,164.192 529.882316,163.68 C529.882316,159.04 526.842316,155.36 521.530316,155.36 C516.442316,155.36 513.050316,159.072 513.050316,163.904 C513.050316,169.024 516.666316,172.448 521.850316,172.448 Z M525.754316,162.528 L517.210316,162.528 C517.434316,160.672 519.034316,158.944 521.498316,158.944 C524.026316,158.944 525.562316,160.544 525.754316,162.528 Z M537.137895,172 L537.137895,164.96 C537.137895,160.608 539.025895,159.008 542.481895,159.552 L542.481895,155.584 C539.953895,155.232 538.097895,156.32 537.137895,158.208 L537.137895,155.808 L532.913895,155.808 L532.913895,172 L537.137895,172 Z M551.977474,172.448 C556.233474,172.448 558.857474,169.952 559.785474,167.84 L555.977474,166.72 C555.337474,167.936 554.089474,168.864 552.041474,168.864 C549.097474,168.864 547.625474,167.264 547.337474,165.184 L559.913474,165.184 C560.009474,164.672 560.009474,164.192 560.009474,163.68 C560.009474,159.04 556.969474,155.36 551.657474,155.36 C546.569474,155.36 543.177474,159.072 543.177474,163.904 C543.177474,169.024 546.793474,172.448 551.977474,172.448 Z M555.881474,162.528 L547.337474,162.528 C547.561474,160.672 549.161474,158.944 551.625474,158.944 C554.153474,158.944 555.689474,160.544 555.881474,162.528 Z M574.968632,178.72 L574.968632,170.016 C576.152632,171.488 577.912632,172.448 580.216632,172.448 C584.696632,172.448 588.184632,168.8 588.184632,163.904 C588.184632,158.976 584.696632,155.36 580.216632,155.36 C577.912632,155.36 576.152632,156.288 574.968632,157.76 L574.968632,155.808 L570.744632,155.808 L570.744632,178.72 L574.968632,178.72 Z M579.480632,168.672 C576.920632,168.672 574.872632,166.688 574.872632,163.872 C574.872632,161.088 576.920632,159.136 579.480632,159.136 C582.136632,159.136 584.024632,161.088 584.024632,163.872 C584.024632,166.688 582.136632,168.672 579.480632,168.672 Z M599.024211,172.448 C603.280211,172.448 605.904211,169.952 606.832211,167.84 L603.024211,166.72 C602.384211,167.936 601.136211,168.864 599.088211,168.864 C596.144211,168.864 594.672211,167.264 594.384211,165.184 L606.960211,165.184 C607.056211,164.672 607.056211,164.192 607.056211,163.68 C607.056211,159.04 604.016211,155.36 598.704211,155.36 C593.616211,155.36 590.224211,159.072 590.224211,163.904 C590.224211,169.024 593.840211,172.448 599.024211,172.448 Z M602.928211,162.528 L594.384211,162.528 C594.608211,160.672 596.208211,158.944 598.672211,158.944 C601.200211,158.944 602.736211,160.544 602.928211,162.528 Z M617.767789,172.448 C622.759789,172.448 626.407789,168.736 626.407789,163.904 C626.407789,159.04 622.759789,155.36 617.767789,155.36 C612.775789,155.36 609.095789,159.04 609.095789,163.904 C609.095789,168.736 612.775789,172.448 617.767789,172.448 Z M617.767789,168.608 C615.047789,168.608 613.223789,166.592 613.223789,163.904 C613.223789,161.216 615.047789,159.2 617.767789,159.2 C620.455789,159.2 622.311789,161.216 622.311789,163.904 C622.311789,166.592 620.455789,168.608 617.767789,168.608 Z M633.663368,178.72 L633.663368,170.016 C634.847368,171.488 636.607368,172.448 638.911368,172.448 C643.391368,172.448 646.879368,168.8 646.879368,163.904 C646.879368,158.976 643.391368,155.36 638.911368,155.36 C636.607368,155.36 634.847368,156.288 633.663368,157.76 L633.663368,155.808 L629.439368,155.808 L629.439368,178.72 L633.663368,178.72 Z M638.175368,168.672 C635.615368,168.672 633.567368,166.688 633.567368,163.872 C633.567368,161.088 635.615368,159.136 638.175368,159.136 C640.831368,159.136 642.719368,161.088 642.719368,163.872 C642.719368,166.688 640.831368,168.672 638.175368,168.672 Z M654.134947,172 L654.134947,148.64 L649.910947,148.64 L649.910947,172 L654.134947,172 Z M665.934526,172.448 C670.190526,172.448 672.814526,169.952 673.742526,167.84 L669.934526,166.72 C669.294526,167.936 668.046526,168.864 665.998526,168.864 C663.054526,168.864 661.582526,167.264 661.294526,165.184 L673.870526,165.184 C673.966526,164.672 673.966526,164.192 673.966526,163.68 C673.966526,159.04 670.926526,155.36 665.614526,155.36 C660.526526,155.36 657.134526,159.072 657.134526,163.904 C657.134526,169.024 660.750526,172.448 665.934526,172.448 Z M669.838526,162.528 L661.294526,162.528 C661.518526,160.672 663.118526,158.944 665.582526,158.944 C668.110526,158.944 669.646526,160.544 669.838526,162.528 Z M692.317684,172.448 C696.765684,172.448 699.549684,169.632 700.189684,167.168 L696.253684,166.08 C695.901684,167.424 694.397684,168.672 692.285684,168.672 C689.597684,168.672 687.869684,166.4 687.869684,163.872 C687.869684,161.312 689.597684,159.104 692.285684,159.104 C694.397684,159.104 695.901684,160.448 696.253684,161.792 L700.189684,160.672 C699.549684,158.24 696.765684,155.36 692.285684,155.36 C687.357684,155.36 683.709684,159.04 683.709684,163.872 C683.709684,168.736 687.357684,172.448 692.317684,172.448 Z M710.101263,172.448 C712.373263,172.448 714.165263,171.488 715.317263,170.016 L715.317263,172 L719.573263,172 L719.573263,155.808 L715.317263,155.808 L715.317263,157.76 C714.165263,156.288 712.373263,155.36 710.101263,155.36 C705.621263,155.36 702.101263,158.976 702.101263,163.904 C702.101263,168.8 705.621263,172.448 710.101263,172.448 Z M710.837263,168.672 C708.181263,168.672 706.293263,166.688 706.293263,163.872 C706.293263,161.088 708.181263,159.136 710.837263,159.136 C713.397263,159.136 715.445263,161.088 715.445263,163.872 C715.445263,166.688 713.397263,168.672 710.837263,168.672 Z M727.788842,172 L727.788842,164 C727.788842,161.152 729.324842,159.296 731.692842,159.296 C734.028842,159.296 735.148842,160.864 735.148842,163.328 L735.148842,172 L739.372842,172 L739.372842,162.528 C739.372842,158.208 737.228842,155.36 733.004842,155.36 C730.668842,155.36 728.908842,156.416 727.788842,157.856 L727.788842,155.808 L723.564842,155.808 L723.564842,172 L727.788842,172 Z M780.258737,172.448 C782.594737,172.448 784.354737,171.392 785.442737,169.952 L785.442737,172 L789.666737,172 L789.666737,155.808 L785.442737,155.808 L785.442737,163.776 C785.442737,166.656 783.938737,168.512 781.538737,168.512 C779.202737,168.512 778.082737,166.912 778.082737,164.448 L778.082737,155.808 L773.858737,155.808 L773.858737,165.248 C773.858737,169.6 776.002737,172.448 780.258737,172.448 Z M800.026316,172.448 C804.154316,172.448 807.034316,170.208 807.034316,167.168 C807.034316,164.256 804.922316,163.264 802.490316,162.56 L798.458316,161.408 C797.562316,161.152 797.114316,160.768 797.114316,160.128 C797.114316,159.36 798.106316,158.656 799.418316,158.656 C801.114316,158.656 802.298316,159.52 802.874316,160.544 L806.618316,159.456 C805.594316,157.024 802.938316,155.36 799.450316,155.36 C795.898316,155.36 792.954316,157.504 792.954316,160.224 C792.954316,162.528 794.650316,163.872 796.954316,164.544 L801.082316,165.76 C802.266316,166.112 802.874316,166.56 802.874316,167.36 C802.874316,168.256 801.818316,169.024 800.186316,169.024 C798.042316,169.024 796.506316,167.872 795.962316,166.336 L792.154316,167.456 C792.954316,170.08 796.026316,172.448 800.026316,172.448 Z M817.713895,172.448 C821.969895,172.448 824.593895,169.952 825.521895,167.84 L821.713895,166.72 C821.073895,167.936 819.825895,168.864 817.777895,168.864 C814.833895,168.864 813.361895,167.264 813.073895,165.184 L825.649895,165.184 C825.745895,164.672 825.745895,164.192 825.745895,163.68 C825.745895,159.04 822.705895,155.36 817.393895,155.36 C812.305895,155.36 808.913895,159.072 808.913895,163.904 C808.913895,169.024 812.529895,172.448 817.713895,172.448 Z M821.617895,162.528 L813.073895,162.528 C813.297895,160.672 814.897895,158.944 817.361895,158.944 C819.889895,158.944 821.425895,160.544 821.617895,162.528 Z M843.265053,178.72 L852.993053,155.808 L848.481053,155.808 L843.969053,166.752 L839.169053,155.808 L834.529053,155.808 L841.857053,171.648 L838.913053,178.72 L843.265053,178.72 Z M862.168632,172.448 C867.160632,172.448 870.808632,168.736 870.808632,163.904 C870.808632,159.04 867.160632,155.36 862.168632,155.36 C857.176632,155.36 853.496632,159.04 853.496632,163.904 C853.496632,168.736 857.176632,172.448 862.168632,172.448 Z M862.168632,168.608 C859.448632,168.608 857.624632,166.592 857.624632,163.904 C857.624632,161.216 859.448632,159.2 862.168632,159.2 C864.856632,159.2 866.712632,161.216 866.712632,163.904 C866.712632,166.592 864.856632,168.608 862.168632,168.608 Z M880.080211,172.448 C882.416211,172.448 884.176211,171.392 885.264211,169.952 L885.264211,172 L889.488211,172 L889.488211,155.808 L885.264211,155.808 L885.264211,163.776 C885.264211,166.656 883.760211,168.512 881.360211,168.512 C879.024211,168.512 877.904211,166.912 877.904211,164.448 L877.904211,155.808 L873.680211,155.808 L873.680211,165.248 C873.680211,169.6 875.824211,172.448 880.080211,172.448 Z M897.70379,172 L897.70379,164.96 C897.70379,160.608 899.59179,159.008 903.04779,159.552 L903.04779,155.584 C900.51979,155.232 898.66379,156.32 897.70379,158.208 L897.70379,155.808 L893.47979,155.808 L893.47979,172 L897.70379,172 Z M920.342948,172.448 C922.614948,172.448 924.406948,171.488 925.558948,170.016 L925.558948,172 L929.814948,172 L929.814948,155.808 L925.558948,155.808 L925.558948,157.76 C924.406948,156.288 922.614948,155.36 920.342948,155.36 C915.862948,155.36 912.342948,158.976 912.342948,163.904 C912.342948,168.8 915.862948,172.448 920.342948,172.448 Z M921.078948,168.672 C918.422948,168.672 916.534948,166.688 916.534948,163.872 C916.534948,161.088 918.422948,159.136 921.078948,159.136 C923.638948,159.136 925.686948,161.088 925.686948,163.872 C925.686948,166.688 923.638948,168.672 921.078948,168.672 Z M938.030527,178.72 L938.030527,170.016 C939.214527,171.488 940.974527,172.448 943.278527,172.448 C947.758527,172.448 951.246527,168.8 951.246527,163.904 C951.246527,158.976 947.758527,155.36 943.278527,155.36 C940.974527,155.36 939.214527,156.288 938.030527,157.76 L938.030527,155.808 L933.806527,155.808 L933.806527,178.72 L938.030527,178.72 Z M942.542527,168.672 C939.982527,168.672 937.934527,166.688 937.934527,163.872 C937.934527,161.088 939.982527,159.136 942.542527,159.136 C945.198527,159.136 947.086527,161.088 947.086527,163.872 C947.086527,166.688 945.198527,168.672 942.542527,168.672 Z M958.502105,178.72 L958.502105,170.016 C959.686105,171.488 961.446105,172.448 963.750105,172.448 C968.230105,172.448 971.718105,168.8 971.718105,163.904 C971.718105,158.976 968.230105,155.36 963.750105,155.36 C961.446105,155.36 959.686105,156.288 958.502105,157.76 L958.502105,155.808 L954.278105,155.808 L954.278105,178.72 L958.502105,178.72 Z M963.014105,168.672 C960.454105,168.672 958.406105,166.688 958.406105,163.872 C958.406105,161.088 960.454105,159.136 963.014105,159.136 C965.670105,159.136 967.558105,161.088 967.558105,163.872 C967.558105,166.688 965.670105,168.672 963.014105,168.672 Z" id="Skiptothepartwherepeoplecanuseyourapp" fill="#868E96" fill-rule="nonzero" transform="translate(595.472211, 163.664000) rotate(-1.000000) translate(-595.472211, -163.664000) "></path>
        <path d="M299.022355,123.546237 L299.022355,111.786237 L306.174355,111.786237 L313.806355,123.546237 L321.390355,123.546237 L313.038355,111.114237 C317.790355,109.482237 320.382355,105.306237 320.382355,100.890237 C320.382355,95.5622374 316.158355,89.9462374 308.862355,89.9462374 L292.494355,89.9462374 L292.494355,123.546237 L299.022355,123.546237 Z M308.430355,106.026237 L299.022355,106.026237 L299.022355,95.8502374 L308.670355,95.8502374 C311.790355,95.8502374 313.998355,98.2022374 313.998355,100.890237 C313.998355,103.674237 311.838355,106.026237 308.430355,106.026237 Z M336.353724,124.218237 C342.737724,124.218237 346.673724,120.474237 348.065724,117.306237 L342.353724,115.626237 C341.393724,117.450237 339.521724,118.842237 336.449724,118.842237 C332.033724,118.842237 329.825724,116.442237 329.393724,113.322237 L348.257724,113.322237 C348.401724,112.554237 348.401724,111.834237 348.401724,111.066237 C348.401724,104.106237 343.841724,98.5862374 335.873724,98.5862374 C328.241724,98.5862374 323.153724,104.154237 323.153724,111.402237 C323.153724,119.082237 328.577724,124.218237 336.353724,124.218237 Z M342.209724,109.338237 L329.393724,109.338237 C329.729724,106.554237 332.129724,103.962237 335.825724,103.962237 C339.617724,103.962237 341.921724,106.362237 342.209724,109.338237 Z M359.285092,123.546237 L359.285092,111.354237 C359.285092,107.082237 361.109092,104.490237 364.517092,104.490237 C367.781092,104.490237 369.077092,106.842237 369.077092,110.442237 L369.077092,123.546237 L375.461092,123.546237 L375.461092,111.162237 C375.461092,107.034237 377.189092,104.490237 380.597092,104.490237 C383.909092,104.490237 385.253092,106.794237 385.253092,110.442237 L385.253092,123.546237 L391.589092,123.546237 L391.589092,109.098237 C391.589092,102.330237 387.797092,98.5862374 381.989092,98.5862374 C378.101092,98.5862374 375.365092,100.218237 373.781092,102.234237 C372.293092,99.9302374 369.893092,98.5862374 366.485092,98.5862374 C363.269092,98.5862374 360.869092,100.074237 359.285092,102.138237 L359.285092,99.2582374 L352.949092,99.2582374 L352.949092,123.546237 L359.285092,123.546237 Z M407.848461,124.218237 C411.256461,124.218237 413.944461,122.778237 415.672461,120.570237 L415.672461,123.546237 L422.056461,123.546237 L422.056461,99.2582374 L415.672461,99.2582374 L415.672461,102.186237 C413.944461,99.9782374 411.256461,98.5862374 407.848461,98.5862374 C401.128461,98.5862374 395.848461,104.010237 395.848461,111.402237 C395.848461,118.746237 401.128461,124.218237 407.848461,124.218237 Z M408.952461,118.554237 C404.968461,118.554237 402.136461,115.578237 402.136461,111.354237 C402.136461,107.178237 404.968461,104.250237 408.952461,104.250237 C412.792461,104.250237 415.864461,107.178237 415.864461,111.354237 C415.864461,115.578237 412.792461,118.554237 408.952461,118.554237 Z M434.379829,123.546237 L434.379829,117.354237 L437.211829,114.186237 L444.267829,123.546237 L451.467829,123.546237 L441.195829,109.722237 L450.507829,99.2582374 L443.115829,99.2582374 L434.379829,109.290237 L434.379829,88.5062374 L428.043829,88.5062374 L428.043829,123.546237 L434.379829,123.546237 Z M464.847198,124.218237 C471.231198,124.218237 475.167198,120.474237 476.559198,117.306237 L470.847198,115.626237 C469.887198,117.450237 468.015198,118.842237 464.943198,118.842237 C460.527198,118.842237 458.319198,116.442237 457.887198,113.322237 L476.751198,113.322237 C476.895198,112.554237 476.895198,111.834237 476.895198,111.066237 C476.895198,104.106237 472.335198,98.5862374 464.367198,98.5862374 C456.735198,98.5862374 451.647198,104.154237 451.647198,111.402237 C451.647198,119.082237 457.071198,124.218237 464.847198,124.218237 Z M470.703198,109.338237 L457.887198,109.338237 C458.223198,106.554237 460.623198,103.962237 464.319198,103.962237 C468.111198,103.962237 470.415198,106.362237 470.703198,109.338237 Z M504.997934,134.298237 C512.581934,134.298237 517.525934,129.450237 517.525934,122.682237 L517.525934,99.2582374 L511.189934,99.2582374 L511.189934,102.090237 C509.365934,99.8342374 506.725934,98.5862374 503.509934,98.5862374 C496.549934,98.5862374 491.509934,103.626237 491.509934,110.922237 C491.509934,117.834237 496.549934,123.258237 503.509934,123.258237 C506.725934,123.258237 509.365934,122.010237 511.189934,119.754237 L511.189934,122.682237 C511.141934,126.282237 509.125934,129.066237 505.141934,129.066237 C502.069934,129.066237 500.053934,127.914237 498.805934,125.946237 L493.285934,127.914237 C495.301934,131.562237 499.045934,134.298237 504.997934,134.298237 Z M504.613934,117.546237 C500.581934,117.546237 497.797934,114.858237 497.797934,110.922237 C497.797934,106.986237 500.581934,104.298237 504.613934,104.298237 C508.501934,104.298237 511.333934,107.034237 511.333934,110.922237 C511.333934,114.858237 508.501934,117.546237 504.613934,117.546237 Z M526.729303,95.8502374 C528.841303,95.8502374 530.521303,94.2182374 530.521303,92.1062374 C530.521303,90.0902374 528.841303,88.4582374 526.729303,88.4582374 C524.617303,88.4582374 522.937303,90.0902374 522.937303,92.1062374 C522.937303,94.2182374 524.617303,95.8502374 526.729303,95.8502374 Z M529.849303,123.546237 L529.849303,99.2582374 L523.465303,99.2582374 L523.465303,123.546237 L529.849303,123.546237 Z M550.188671,123.546237 L560.220671,99.2582374 L553.308671,99.2582374 L546.636671,116.538237 L539.964671,99.2582374 L533.004671,99.2582374 L543.036671,123.546237 L550.188671,123.546237 Z M574.17604,124.218237 C580.56004,124.218237 584.49604,120.474237 585.88804,117.306237 L580.17604,115.626237 C579.21604,117.450237 577.34404,118.842237 574.27204,118.842237 C569.85604,118.842237 567.64804,116.442237 567.21604,113.322237 L586.08004,113.322237 C586.22404,112.554237 586.22404,111.834237 586.22404,111.066237 C586.22404,104.106237 581.66404,98.5862374 573.69604,98.5862374 C566.06404,98.5862374 560.97604,104.154237 560.97604,111.402237 C560.97604,119.082237 566.40004,124.218237 574.17604,124.218237 Z M580.03204,109.338237 L567.21604,109.338237 C567.55204,106.554237 569.95204,103.962237 573.64804,103.962237 C577.44004,103.962237 579.74404,106.362237 580.03204,109.338237 Z M600.323408,124.218237 C606.515408,124.218237 610.835408,120.858237 610.835408,116.298237 C610.835408,111.930237 607.667408,110.442237 604.019408,109.386237 L597.971408,107.658237 C596.627408,107.274237 595.955408,106.698237 595.955408,105.738237 C595.955408,104.586237 597.443408,103.530237 599.411408,103.530237 C601.955408,103.530237 603.731408,104.826237 604.595408,106.362237 L610.211408,104.730237 C608.675408,101.082237 604.691408,98.5862374 599.459408,98.5862374 C594.131408,98.5862374 589.715408,101.802237 589.715408,105.882237 C589.715408,109.338237 592.259408,111.354237 595.715408,112.362237 L601.907408,114.186237 C603.683408,114.714237 604.595408,115.386237 604.595408,116.586237 C604.595408,117.930237 603.011408,119.082237 600.563408,119.082237 C597.347408,119.082237 595.043408,117.354237 594.227408,115.050237 L588.515408,116.730237 C589.715408,120.666237 594.323408,124.218237 600.323408,124.218237 Z M637.162145,133.626237 L651.754145,99.2582374 L644.986145,99.2582374 L638.218145,115.674237 L631.018145,99.2582374 L624.058145,99.2582374 L635.050145,123.018237 L630.634145,133.626237 L637.162145,133.626237 Z M665.517514,124.218237 C673.005514,124.218237 678.477514,118.650237 678.477514,111.402237 C678.477514,104.106237 673.005514,98.5862374 665.517514,98.5862374 C658.029514,98.5862374 652.509514,104.106237 652.509514,111.402237 C652.509514,118.650237 658.029514,124.218237 665.517514,124.218237 Z M665.517514,118.458237 C661.437514,118.458237 658.701514,115.434237 658.701514,111.402237 C658.701514,107.370237 661.437514,104.346237 665.517514,104.346237 C669.549514,104.346237 672.333514,107.370237 672.333514,111.402237 C672.333514,115.434237 669.549514,118.458237 665.517514,118.458237 Z M692.384882,124.218237 C695.888882,124.218237 698.528882,122.634237 700.160882,120.474237 L700.160882,123.546237 L706.496882,123.546237 L706.496882,99.2582374 L700.160882,99.2582374 L700.160882,111.210237 C700.160882,115.530237 697.904882,118.314237 694.304882,118.314237 C690.800882,118.314237 689.120882,115.914237 689.120882,112.218237 L689.120882,99.2582374 L682.784882,99.2582374 L682.784882,113.418237 C682.784882,119.946237 686.000882,124.218237 692.384882,124.218237 Z M734.551619,124.218237 C737.959619,124.218237 740.647619,122.778237 742.375619,120.570237 L742.375619,123.546237 L748.759619,123.546237 L748.759619,99.2582374 L742.375619,99.2582374 L742.375619,102.186237 C740.647619,99.9782374 737.959619,98.5862374 734.551619,98.5862374 C727.831619,98.5862374 722.551619,104.010237 722.551619,111.402237 C722.551619,118.746237 727.831619,124.218237 734.551619,124.218237 Z M735.655619,118.554237 C731.671619,118.554237 728.839619,115.578237 728.839619,111.354237 C728.839619,107.178237 731.671619,104.250237 735.655619,104.250237 C739.495619,104.250237 742.567619,107.178237 742.567619,111.354237 C742.567619,115.578237 739.495619,118.554237 735.655619,118.554237 Z M795.749093,123.546237 L795.749093,88.5062374 L789.413093,88.5062374 L789.413093,123.546237 L795.749093,123.546237 Z M813.256461,124.218237 C820.744461,124.218237 826.216461,118.650237 826.216461,111.402237 C826.216461,104.106237 820.744461,98.5862374 813.256461,98.5862374 C805.768461,98.5862374 800.248461,104.106237 800.248461,111.402237 C800.248461,118.650237 805.768461,124.218237 813.256461,124.218237 Z M813.256461,118.458237 C809.176461,118.458237 806.440461,115.434237 806.440461,111.402237 C806.440461,107.370237 809.176461,104.346237 813.256461,104.346237 C817.288461,104.346237 820.072461,107.370237 820.072461,111.402237 C820.072461,115.434237 817.288461,118.458237 813.256461,118.458237 Z M842.283829,124.218237 C849.771829,124.218237 855.243829,118.650237 855.243829,111.402237 C855.243829,104.106237 849.771829,98.5862374 842.283829,98.5862374 C834.795829,98.5862374 829.275829,104.106237 829.275829,111.402237 C829.275829,118.650237 834.795829,124.218237 842.283829,124.218237 Z M842.283829,118.458237 C838.203829,118.458237 835.467829,115.434237 835.467829,111.402237 C835.467829,107.370237 838.203829,104.346237 842.283829,104.346237 C846.315829,104.346237 849.099829,107.370237 849.099829,111.402237 C849.099829,115.434237 846.315829,118.458237 842.283829,118.458237 Z M866.127198,133.626237 L866.127198,120.570237 C867.903198,122.778237 870.543198,124.218237 873.999198,124.218237 C880.719198,124.218237 885.951198,118.746237 885.951198,111.402237 C885.951198,104.010237 880.719198,98.5862374 873.999198,98.5862374 C870.543198,98.5862374 867.903198,99.9782374 866.127198,102.186237 L866.127198,99.2582374 L859.791198,99.2582374 L859.791198,133.626237 L866.127198,133.626237 Z M872.895198,118.554237 C869.055198,118.554237 865.983198,115.578237 865.983198,111.354237 C865.983198,107.178237 869.055198,104.250237 872.895198,104.250237 C876.879198,104.250237 879.711198,107.178237 879.711198,111.354237 C879.711198,115.578237 876.879198,118.554237 872.895198,118.554237 Z M896.834566,123.546237 L896.834566,111.546237 C896.834566,107.274237 899.138566,104.490237 902.690566,104.490237 C906.194566,104.490237 907.874566,106.842237 907.874566,110.538237 L907.874566,123.546237 L914.210566,123.546237 L914.210566,109.338237 C914.210566,102.858237 910.994566,98.5862374 904.658566,98.5862374 C901.154566,98.5862374 898.514566,100.170237 896.834566,102.330237 L896.834566,88.5062374 L890.498566,88.5062374 L890.498566,123.546237 L896.834566,123.546237 Z M931.477935,124.218237 C938.965935,124.218237 944.437935,118.650237 944.437935,111.402237 C944.437935,104.106237 938.965935,98.5862374 931.477935,98.5862374 C923.989935,98.5862374 918.469935,104.106237 918.469935,111.402237 C918.469935,118.650237 923.989935,124.218237 931.477935,124.218237 Z M931.477935,118.458237 C927.397935,118.458237 924.661935,115.434237 924.661935,111.402237 C924.661935,107.370237 927.397935,104.346237 931.477935,104.346237 C935.509935,104.346237 938.293935,107.370237 938.293935,111.402237 C938.293935,115.434237 935.509935,118.458237 931.477935,118.458237 Z M955.321303,123.546237 L955.321303,88.5062374 L948.985303,88.5062374 L948.985303,123.546237 L955.321303,123.546237 Z M973.020672,124.218237 C979.404672,124.218237 983.340672,120.474237 984.732672,117.306237 L979.020672,115.626237 C978.060672,117.450237 976.188672,118.842237 973.116672,118.842237 C968.700672,118.842237 966.492672,116.442237 966.060672,113.322237 L984.924672,113.322237 C985.068672,112.554237 985.068672,111.834237 985.068672,111.066237 C985.068672,104.106237 980.508672,98.5862374 972.540672,98.5862374 C964.908672,98.5862374 959.820672,104.154237 959.820672,111.402237 C959.820672,119.082237 965.244672,124.218237 973.020672,124.218237 Z M978.876672,109.338237 L966.060672,109.338237 C966.396672,106.554237 968.796672,103.962237 972.492672,103.962237 C976.284672,103.962237 978.588672,106.362237 978.876672,109.338237 Z" id="Remakegivesyoualoophole" fill="#212529" fill-rule="nonzero" transform="translate(638.781514, 111.378237) rotate(-1.000000) translate(-638.781514, -111.378237) "></path>
        <rect id="Rectangle" fill="#d1d7f0" x="66.4051593" y="391.021244" width="1013.35357" height="7.28376328"></rect>
        <rect id="Rectangle" fill="#4263EB" x="36" y="356.569044" width="64.4569347" height="64.4569347" rx="32.2284674"></rect>
        <g id="1" fill-rule="nonzero">
            <use fill="black" fill-opacity="1" filter="url(#filter-2)" xlink:href="#path-1"></use>
            <use fill="#FFFFFF" xlink:href="#path-1"></use>
        </g>
        <rect id="Rectangle-Copy" fill="#ADB5BD" x="190.9" y="373.441578" width="41.4366009" height="41.4366009" rx="20.7183004"></rect>
        <g id="2" fill-rule="nonzero">
            <use fill="black" fill-opacity="1" filter="url(#filter-4)" xlink:href="#path-3"></use>
            <use fill="#FFFFFF" xlink:href="#path-3"></use>
        </g>
        <path d="M187.997346,447 L187.997346,437.004625 L192.832419,443.704345 L197.667492,437.004625 L197.667492,447 L200.637918,447 L200.637918,431.822641 L197.797584,431.822641 L192.832419,438.999364 L187.867254,431.822641 L185.02692,431.822641 L185.02692,447 L187.997346,447 Z M208.546121,447.303547 C211.928504,447.303547 214.400245,444.788442 214.400245,441.514469 C214.400245,438.218814 211.928504,435.72539 208.546121,435.72539 C205.163738,435.72539 202.670315,438.218814 202.670315,441.514469 C202.670315,444.788442 205.163738,447.303547 208.546121,447.303547 Z M208.546121,444.701714 C206.703156,444.701714 205.467285,443.335752 205.467285,441.514469 C205.467285,439.693186 206.703156,438.327223 208.546121,438.327223 C210.367404,438.327223 211.624956,439.693186 211.624956,441.514469 C211.624956,443.335752 210.367404,444.701714 208.546121,444.701714 Z M221.614626,447.303547 C224.628416,447.303547 226.514744,445.395536 226.948383,443.726027 L224.281504,442.988841 C224.043003,443.899482 223.023952,444.745078 221.592944,444.745078 C219.771661,444.745078 218.600836,443.20566 218.600836,441.492787 C218.600836,439.758232 219.771661,438.262178 221.592944,438.262178 C223.023952,438.262178 224.043003,439.172819 224.281504,440.083461 L226.948383,439.324593 C226.514744,437.676765 224.628416,435.72539 221.592944,435.72539 C218.253925,435.72539 215.782183,438.218814 215.782183,441.492787 C215.782183,444.788442 218.253925,447.303547 221.614626,447.303547 Z M231.669341,447 L231.669341,444.20303 L232.948575,442.772021 L236.135821,447 L239.388112,447 L234.748176,440.755601 L238.954473,436.028938 L235.615454,436.028938 L231.669341,440.560463 L231.669341,431.172183 L228.807324,431.172183 L228.807324,447 L231.669341,447 Z M192.702327,473.303547 C194.241745,473.303547 195.455934,472.653089 196.236484,471.65572 L196.236484,473 L199.120182,473 L199.120182,457.172183 L196.236484,457.172183 L196.236484,463.351536 C195.455934,462.354167 194.241745,461.72539 192.702327,461.72539 C189.666856,461.72539 187.281842,464.17545 187.281842,467.514469 C187.281842,470.831806 189.666856,473.303547 192.702327,473.303547 Z M193.201012,470.745078 C191.401411,470.745078 190.122176,469.400798 190.122176,467.492787 C190.122176,465.606458 191.401411,464.28386 193.201012,464.28386 C194.935567,464.28386 196.323212,465.606458 196.323212,467.492787 C196.323212,469.400798 194.935567,470.745078 193.201012,470.745078 Z M206.573064,473.303547 C208.112482,473.303547 209.326671,472.653089 210.107221,471.65572 L210.107221,473 L212.990919,473 L212.990919,462.028938 L210.107221,462.028938 L210.107221,463.351536 C209.326671,462.354167 208.112482,461.72539 206.573064,461.72539 C203.537592,461.72539 201.152579,464.17545 201.152579,467.514469 C201.152579,470.831806 203.537592,473.303547 206.573064,473.303547 Z M207.071749,470.745078 C205.272148,470.745078 203.992913,469.400798 203.992913,467.492787 C203.992913,465.606458 205.272148,464.28386 207.071749,464.28386 C208.806304,464.28386 210.193948,465.606458 210.193948,467.492787 C210.193948,469.400798 208.806304,470.745078 207.071749,470.745078 Z M220.09689,473.173456 C221.007531,473.173456 221.788081,473 222.655359,472.653089 L221.961537,470.333121 C221.527898,470.549941 221.159305,470.636668 220.66062,470.636668 C219.749979,470.636668 219.31634,470.137984 219.31634,469.249024 L219.31634,464.544043 L222.525267,464.544043 L222.525267,462.028938 L219.31634,462.028938 L219.31634,458.473099 L216.432642,458.473099 L216.432642,462.028938 L214.589677,462.028938 L214.589677,464.544043 L216.432642,464.544043 L216.432642,469.249024 C216.432642,471.612356 217.581785,473.173456 220.09689,473.173456 Z M228.742279,473.303547 C230.281696,473.303547 231.495885,472.653089 232.276435,471.65572 L232.276435,473 L235.160133,473 L235.160133,462.028938 L232.276435,462.028938 L232.276435,463.351536 C231.495885,462.354167 230.281696,461.72539 228.742279,461.72539 C225.706807,461.72539 223.321793,464.17545 223.321793,467.514469 C223.321793,470.831806 225.706807,473.303547 228.742279,473.303547 Z M229.240963,470.745078 C227.441362,470.745078 226.162128,469.400798 226.162128,467.492787 C226.162128,465.606458 227.441362,464.28386 229.240963,464.28386 C230.975519,464.28386 232.363163,465.606458 232.363163,467.492787 C232.363163,469.400798 230.975519,470.745078 229.240963,470.745078 Z" id="Mockdata" fill="#212529" fill-rule="nonzero"></path>
        <rect id="Rectangle-Copy-2" fill="#ADB5BD" x="336.4" y="372.294385" width="41.4366009" height="41.4366009" rx="20.7183004"></rect>
        <g id="3" fill-rule="nonzero">
            <use fill="black" fill-opacity="1" filter="url(#filter-6)" xlink:href="#path-5"></use>
            <use fill="#FFFFFF" xlink:href="#path-5"></use>
        </g>
        <path d="M333.842942,447.303547 C337.854101,447.303547 340.41257,444.853488 341.106392,442.42511 L338.222694,441.687924 C337.724009,443.183978 336.097864,444.506577 333.799578,444.506577 C330.80747,444.506577 328.899459,442.099881 328.899459,439.367957 C328.899459,436.636032 330.80747,434.316064 333.799578,434.316064 C336.097864,434.316064 337.724009,435.682027 338.222694,437.156399 L341.128074,436.440895 C340.434252,434.034199 337.875783,431.519094 333.777896,431.519094 C329.268052,431.519094 325.863987,434.923159 325.863987,439.389639 C325.863987,443.8778 329.268052,447.303547 333.842942,447.303547 Z M346.022487,447 L346.022487,441.687924 L349.253096,441.687924 L352.700525,447 L356.126272,447 L352.353614,441.384377 C354.500126,440.647191 355.670951,438.760862 355.670951,436.766124 C355.670951,434.359428 353.76294,431.822641 350.467285,431.822641 L343.073743,431.822641 L343.073743,447 L346.022487,447 Z M350.272148,439.086091 L346.022487,439.086091 L346.022487,434.48952 L350.380557,434.48952 C351.789884,434.48952 352.787253,435.551935 352.787253,436.766124 C352.787253,438.023676 351.811565,439.086091 350.272148,439.086091 Z M364.251294,447.303547 C368.479273,447.303547 370.820922,444.636668 370.820922,440.777283 L370.820922,431.822641 L367.828814,431.822641 L367.828814,440.733919 C367.828814,442.967159 366.636308,444.571623 364.251294,444.571623 C361.887962,444.571623 360.695456,442.967159 360.695456,440.733919 L360.695456,431.822641 L357.681666,431.822641 L357.681666,440.777283 C357.681666,444.636668 360.001634,447.303547 364.251294,447.303547 Z M379.986678,447 C384.453158,447 387.250128,443.791073 387.250128,439.411321 C387.250128,434.944841 384.409794,431.822641 379.986678,431.822641 L373.395368,431.822641 L373.395368,447 L379.986678,447 Z M379.921632,444.311439 L376.344112,444.311439 L376.344112,434.48952 L379.921632,434.48952 C382.523465,434.48952 384.25802,436.462576 384.25802,439.346275 C384.25802,442.273337 382.523465,444.311439 379.921632,444.311439 Z M341.981658,473 L343.239211,469.704345 L350.069022,469.704345 L351.304893,473 L354.40541,473 L348.572968,457.822641 L344.713583,457.822641 L338.902822,473 L341.981658,473 Z M349.071653,467.08083 L344.214898,467.08083 L346.643275,460.662975 L349.071653,467.08083 Z M358.714411,473 L358.714411,468.360065 L362.747252,468.360065 C366.238045,468.360065 368.146055,465.649822 368.146055,463.091353 C368.146055,460.576248 366.216363,457.822641 362.877344,457.822641 L355.765667,457.822641 L355.765667,473 L358.714411,473 Z M362.660524,465.714868 L358.714411,465.714868 L358.714411,460.511202 L362.790616,460.511202 C364.243306,460.511202 365.262357,461.768754 365.262357,463.113035 C365.262357,464.435633 364.264988,465.714868 362.660524,465.714868 Z M372.888695,473 L372.888695,457.822641 L369.874905,457.822641 L369.874905,473 L372.888695,473 Z" id="CRUDAPI" fill="#212529" fill-rule="nonzero"></path>
        <rect id="Rectangle-Copy-3" fill="#ADB5BD" x="480.9" y="372.294385" width="41.4366009" height="41.4366009" rx="20.7183004"></rect>
        <g id="4" fill-rule="nonzero">
            <use fill="black" fill-opacity="1" filter="url(#filter-8)" xlink:href="#path-7"></use>
            <use fill="#FFFFFF" xlink:href="#path-7"></use>
        </g>
        <path d="M464.615991,447.303547 C468.62715,447.303547 471.185619,444.853488 471.879441,442.42511 L468.995743,441.687924 C468.497058,443.183978 466.870912,444.506577 464.572627,444.506577 C461.580519,444.506577 459.672508,442.099881 459.672508,439.367957 C459.672508,436.636032 461.580519,434.316064 464.572627,434.316064 C466.870912,434.316064 468.497058,435.682027 468.995743,437.156399 L471.901123,436.440895 C471.207301,434.034199 468.648832,431.519094 464.550945,431.519094 C460.041101,431.519094 456.637036,434.923159 456.637036,439.389639 C456.637036,443.8778 460.041101,447.303547 464.615991,447.303547 Z M478.96373,447.303547 C482.346113,447.303547 484.817854,444.788442 484.817854,441.514469 C484.817854,438.218814 482.346113,435.72539 478.96373,435.72539 C475.581347,435.72539 473.087924,438.218814 473.087924,441.514469 C473.087924,444.788442 475.581347,447.303547 478.96373,447.303547 Z M478.96373,444.701714 C477.120765,444.701714 475.884894,443.335752 475.884894,441.514469 C475.884894,439.693186 477.120765,438.327223 478.96373,438.327223 C480.785013,438.327223 482.042566,439.693186 482.042566,441.514469 C482.042566,443.335752 480.785013,444.701714 478.96373,444.701714 Z M489.733949,447 L489.733949,441.579515 C489.733949,439.649822 490.774682,438.392269 492.379146,438.392269 C493.961928,438.392269 494.720796,439.454684 494.720796,441.124194 L494.720796,447 L497.582812,447 L497.582812,440.582145 C497.582812,437.655083 496.130122,435.72539 493.268106,435.72539 C491.685324,435.72539 490.492817,436.440895 489.733949,437.416582 L489.733949,436.028938 L486.871933,436.028938 L486.871933,447 L489.733949,447 Z M503.040955,447 L503.040955,441.579515 C503.040955,439.649822 504.081689,438.392269 505.686152,438.392269 C507.268934,438.392269 508.027802,439.454684 508.027802,441.124194 L508.027802,447 L510.889818,447 L510.889818,440.582145 C510.889818,437.655083 509.437128,435.72539 506.575112,435.72539 C504.99233,435.72539 503.799823,436.440895 503.040955,437.416582 L503.040955,436.028938 L500.178939,436.028938 L500.178939,447 L503.040955,447 Z M518.776339,447.303547 C521.660037,447.303547 523.437956,445.612356 524.066733,444.181348 L521.486582,443.42248 C521.052943,444.246393 520.207347,444.87517 518.819703,444.87517 C516.824964,444.87517 515.827595,443.791073 515.632458,442.381746 L524.153461,442.381746 C524.218506,442.034835 524.218506,441.709606 524.218506,441.362695 C524.218506,438.218814 522.158722,435.72539 518.55952,435.72539 C515.112091,435.72539 512.813805,438.240496 512.813805,441.514469 C512.813805,444.983579 515.263865,447.303547 518.776339,447.303547 Z M521.421536,440.582145 L515.632458,440.582145 C515.784231,439.324593 516.868328,438.153768 518.537838,438.153768 C520.250711,438.153768 521.291444,439.237865 521.421536,440.582145 Z M531.432887,447.303547 C534.446677,447.303547 536.333006,445.395536 536.766645,443.726027 L534.099766,442.988841 C533.861265,443.899482 532.842213,444.745078 531.411205,444.745078 C529.589922,444.745078 528.419097,443.20566 528.419097,441.492787 C528.419097,439.758232 529.589922,438.262178 531.411205,438.262178 C532.842213,438.262178 533.861265,439.172819 534.099766,440.083461 L536.766645,439.324593 C536.333006,437.676765 534.446677,435.72539 531.411205,435.72539 C528.072186,435.72539 525.600445,438.218814 525.600445,441.492787 C525.600445,444.788442 528.072186,447.303547 531.432887,447.303547 Z M543.13543,447.173456 C544.046071,447.173456 544.826621,447 545.693899,446.653089 L545.000077,444.333121 C544.566438,444.549941 544.197845,444.636668 543.69916,444.636668 C542.788519,444.636668 542.35488,444.137984 542.35488,443.249024 L542.35488,438.544043 L545.563807,438.544043 L545.563807,436.028938 L542.35488,436.028938 L542.35488,432.473099 L539.471182,432.473099 L539.471182,436.028938 L537.628217,436.028938 L537.628217,438.544043 L539.471182,438.544043 L539.471182,443.249024 C539.471182,445.612356 540.620324,447.173456 543.13543,447.173456 Z M475.81186,473.173456 C476.722502,473.173456 477.503052,473 478.370329,472.653089 L477.676507,470.333121 C477.242869,470.549941 476.874276,470.636668 476.375591,470.636668 C475.464949,470.636668 475.031311,470.137984 475.031311,469.249024 L475.031311,464.544043 L478.240238,464.544043 L478.240238,462.028938 L475.031311,462.028938 L475.031311,458.473099 L472.147612,458.473099 L472.147612,462.028938 L470.304647,462.028938 L470.304647,464.544043 L472.147612,464.544043 L472.147612,469.249024 C472.147612,471.612356 473.296755,473.173456 475.81186,473.173456 Z M484.91257,473.303547 C488.294953,473.303547 490.766694,470.788442 490.766694,467.514469 C490.766694,464.218814 488.294953,461.72539 484.91257,461.72539 C481.530187,461.72539 479.036764,464.218814 479.036764,467.514469 C479.036764,470.788442 481.530187,473.303547 484.91257,473.303547 Z M484.91257,470.701714 C483.069605,470.701714 481.833734,469.335752 481.833734,467.514469 C481.833734,465.693186 483.069605,464.327223 484.91257,464.327223 C486.733853,464.327223 487.991406,465.693186 487.991406,467.514469 C487.991406,469.335752 486.733853,470.701714 484.91257,470.701714 Z M499.796652,473 L501.054205,469.704345 L507.884016,469.704345 L509.119887,473 L512.220405,473 L506.387962,457.822641 L502.528577,457.822641 L496.717817,473 L499.796652,473 Z M506.886647,467.08083 L502.029892,467.08083 L504.45827,460.662975 L506.886647,467.08083 Z M516.529405,473 L516.529405,468.360065 L520.562246,468.360065 C524.053039,468.360065 525.96105,465.649822 525.96105,463.091353 C525.96105,460.576248 524.031357,457.822641 520.692338,457.822641 L513.580661,457.822641 L513.580661,473 L516.529405,473 Z M520.475519,465.714868 L516.529405,465.714868 L516.529405,460.511202 L520.60561,460.511202 C522.0583,460.511202 523.077352,461.768754 523.077352,463.113035 C523.077352,464.435633 522.079982,465.714868 520.475519,465.714868 Z M530.703689,473 L530.703689,457.822641 L527.689899,457.822641 L527.689899,473 L530.703689,473 Z" id="ConnecttoAPI" fill="#212529" fill-rule="nonzero"></path>
        <rect id="Rectangle-Copy-4" fill="#ADB5BD" x="625.2" y="372.294385" width="41.4366009" height="41.4366009" rx="20.7183004"></rect>
        <g id="5" fill-rule="nonzero">
            <use fill="black" fill-opacity="1" filter="url(#filter-10)" xlink:href="#path-9"></use>
            <use fill="#FFFFFF" xlink:href="#path-9"></use>
        </g>
        <path d="M615.55017,447 L615.55017,444.311439 L607.28935,444.311439 L607.28935,440.582145 L614.466073,440.582145 L614.466073,437.980312 L607.28935,437.980312 L607.28935,434.511202 L615.571852,434.511202 L615.571852,431.822641 L604.38397,431.822641 L604.38397,447 L615.55017,447 Z M622.30923,447.303547 C623.848648,447.303547 625.062836,446.653089 625.843386,445.65572 L625.843386,447 L628.727084,447 L628.727084,431.172183 L625.843386,431.172183 L625.843386,437.351536 C625.062836,436.354167 623.848648,435.72539 622.30923,435.72539 C619.273758,435.72539 616.888744,438.17545 616.888744,441.514469 C616.888744,444.831806 619.273758,447.303547 622.30923,447.303547 Z M622.807914,444.745078 C621.008313,444.745078 619.729079,443.400798 619.729079,441.492787 C619.729079,439.606458 621.008313,438.28386 622.807914,438.28386 C624.54247,438.28386 625.930114,439.606458 625.930114,441.492787 C625.930114,443.400798 624.54247,444.745078 622.807914,444.745078 Z M632.884311,434.48952 C633.838317,434.48952 634.597185,433.752334 634.597185,432.798328 C634.597185,431.887687 633.838317,431.150501 632.884311,431.150501 C631.930306,431.150501 631.171438,431.887687 631.171438,432.798328 C631.171438,433.752334 631.930306,434.48952 632.884311,434.48952 Z M634.293638,447 L634.293638,436.028938 L631.409939,436.028938 L631.409939,447 L634.293638,447 Z M641.442972,447.173456 C642.353614,447.173456 643.134164,447 644.001442,446.653089 L643.307619,444.333121 C642.873981,444.549941 642.505388,444.636668 642.006703,444.636668 C641.096061,444.636668 640.662423,444.137984 640.662423,443.249024 L640.662423,438.544043 L643.87135,438.544043 L643.87135,436.028938 L640.662423,436.028938 L640.662423,432.473099 L637.778724,432.473099 L637.778724,436.028938 L635.935759,436.028938 L635.935759,438.544043 L637.778724,438.544043 L637.778724,443.249024 C637.778724,445.612356 638.927867,447.173456 641.442972,447.173456 Z M650.088361,447.303547 C651.627779,447.303547 652.841968,446.653089 653.622518,445.65572 L653.622518,447 L656.506216,447 L656.506216,436.028938 L653.622518,436.028938 L653.622518,437.351536 C652.841968,436.354167 651.627779,435.72539 650.088361,435.72539 C647.05289,435.72539 644.667876,438.17545 644.667876,441.514469 C644.667876,444.831806 647.05289,447.303547 650.088361,447.303547 Z M650.587046,444.745078 C648.787445,444.745078 647.50821,443.400798 647.50821,441.492787 C647.50821,439.606458 648.787445,438.28386 650.587046,438.28386 C652.321601,438.28386 653.709246,439.606458 653.709246,441.492787 C653.709246,443.400798 652.321601,444.745078 650.587046,444.745078 Z M665.628608,447.303547 C668.664079,447.303547 671.027411,444.831806 671.027411,441.514469 C671.027411,438.17545 668.664079,435.72539 665.628608,435.72539 C664.067508,435.72539 662.875001,436.354167 662.072769,437.351536 L662.072769,431.172183 L659.210753,431.172183 L659.210753,447 L662.072769,447 L662.072769,445.65572 C662.875001,446.653089 664.067508,447.303547 665.628608,447.303547 Z M665.129923,444.745078 C663.395368,444.745078 662.007723,443.400798 662.007723,441.492787 C662.007723,439.606458 663.395368,438.28386 665.129923,438.28386 C666.929524,438.28386 668.208759,439.606458 668.208759,441.492787 C668.208759,443.400798 666.929524,444.745078 665.129923,444.745078 Z M675.943506,447 L675.943506,431.172183 L673.08149,431.172183 L673.08149,447 L675.943506,447 Z M683.938436,447.303547 C686.822135,447.303547 688.600054,445.612356 689.22883,444.181348 L686.648679,443.42248 C686.21504,444.246393 685.369445,444.87517 683.9818,444.87517 C681.987062,444.87517 680.989692,443.791073 680.794555,442.381746 L689.315558,442.381746 C689.380604,442.034835 689.380604,441.709606 689.380604,441.362695 C689.380604,438.218814 687.320819,435.72539 683.721617,435.72539 C680.274188,435.72539 677.975903,438.240496 677.975903,441.514469 C677.975903,444.983579 680.425962,447.303547 683.938436,447.303547 Z M686.583633,440.582145 L680.794555,440.582145 C680.946329,439.324593 682.030426,438.153768 683.699935,438.153768 C685.412808,438.153768 686.453542,439.237865 686.583633,440.582145 Z M625.13587,473 L629.667396,462.028938 L626.545196,462.028938 L623.531407,469.834437 L620.517617,462.028938 L617.373735,462.028938 L621.905261,473 L625.13587,473 Z M632.502025,460.48952 C633.45603,460.48952 634.214898,459.752334 634.214898,458.798328 C634.214898,457.887687 633.45603,457.150501 632.502025,457.150501 C631.548019,457.150501 630.789151,457.887687 630.789151,458.798328 C630.789151,459.752334 631.548019,460.48952 632.502025,460.48952 Z M633.911351,473 L633.911351,462.028938 L631.027652,462.028938 L631.027652,473 L633.911351,473 Z M641.949645,473.303547 C644.833343,473.303547 646.611263,471.612356 647.240039,470.181348 L644.659888,469.42248 C644.226249,470.246393 643.380653,470.87517 641.993009,470.87517 C639.99827,470.87517 639.000901,469.791073 638.805764,468.381746 L647.326767,468.381746 C647.391812,468.034835 647.391812,467.709606 647.391812,467.362695 C647.391812,464.218814 645.332028,461.72539 641.732826,461.72539 C638.285397,461.72539 635.987111,464.240496 635.987111,467.514469 C635.987111,470.983579 638.437171,473.303547 641.949645,473.303547 Z M644.594842,466.582145 L638.805764,466.582145 C638.957537,465.324593 640.041634,464.153768 641.711144,464.153768 C643.424017,464.153768 644.46475,465.237865 644.594842,466.582145 Z M654.042463,473 L656.297385,466.083461 L658.552307,473 L661.219185,473 L665.013525,462.028938 L662.043099,462.028938 L659.766495,469.379116 L657.489891,462.028938 L655.083196,462.028938 L652.828274,469.379116 L650.55167,462.028938 L647.581244,462.028938 L651.353902,473 L654.042463,473 Z M670.298213,473.303547 C673.095183,473.303547 675.046558,471.785811 675.046558,469.726027 C675.046558,467.75297 673.61555,467.08083 671.967722,466.603827 L669.235798,465.823277 C668.628704,465.649822 668.325156,465.389639 668.325156,464.956 C668.325156,464.435633 668.997297,463.95863 669.886256,463.95863 C671.035399,463.95863 671.837631,464.544043 672.227906,465.237865 L674.764693,464.500679 C674.070871,462.852851 672.27127,461.72539 669.907938,461.72539 C667.501243,461.72539 665.506504,463.178081 665.506504,465.021046 C665.506504,466.582145 666.655647,467.492787 668.216747,467.948108 L671.013717,468.772021 C671.815949,469.010523 672.227906,469.31407 672.227906,469.856118 C672.227906,470.463213 671.512402,470.983579 670.406623,470.983579 C668.953933,470.983579 667.913199,470.20303 667.544606,469.162296 L664.964455,469.921164 C665.506504,471.699084 667.58797,473.303547 670.298213,473.303547 Z" id="Editableviews" fill="#212529" fill-rule="nonzero"></path>
        <rect id="Rectangle-Copy-5" fill="#ADB5BD" x="769.8" y="372.294385" width="41.4366009" height="41.4366009" rx="20.7183004"></rect>
        <g id="6" fill-rule="nonzero">
            <use fill="black" fill-opacity="1" filter="url(#filter-12)" xlink:href="#path-11"></use>
            <use fill="#FFFFFF" xlink:href="#path-11"></use>
        </g>
        <path d="M773.0154,447 C777.48188,447 780.278851,443.791073 780.278851,439.411321 C780.278851,434.944841 777.438516,431.822641 773.0154,431.822641 L766.42409,431.822641 L766.42409,447 L773.0154,447 Z M772.950354,444.311439 L769.372834,444.311439 L769.372834,434.48952 L772.950354,434.48952 C775.552187,434.48952 777.286743,436.462576 777.286743,439.346275 C777.286743,442.273337 775.552187,444.311439 772.950354,444.311439 Z M787.102956,447.303547 C788.642374,447.303547 789.856563,446.653089 790.637113,445.65572 L790.637113,447 L793.520811,447 L793.520811,436.028938 L790.637113,436.028938 L790.637113,437.351536 C789.856563,436.354167 788.642374,435.72539 787.102956,435.72539 C784.067485,435.72539 781.682471,438.17545 781.682471,441.514469 C781.682471,444.831806 784.067485,447.303547 787.102956,447.303547 Z M787.601641,444.745078 C785.80204,444.745078 784.522805,443.400798 784.522805,441.492787 C784.522805,439.606458 785.80204,438.28386 787.601641,438.28386 C789.336196,438.28386 790.723841,439.606458 790.723841,441.492787 C790.723841,443.400798 789.336196,444.745078 787.601641,444.745078 Z M800.626782,447.173456 C801.537424,447.173456 802.317973,447 803.185251,446.653089 L802.491429,444.333121 C802.05779,444.549941 801.689197,444.636668 801.190512,444.636668 C800.279871,444.636668 799.846232,444.137984 799.846232,443.249024 L799.846232,438.544043 L803.055159,438.544043 L803.055159,436.028938 L799.846232,436.028938 L799.846232,432.473099 L796.962534,432.473099 L796.962534,436.028938 L795.119569,436.028938 L795.119569,438.544043 L796.962534,438.544043 L796.962534,443.249024 C796.962534,445.612356 798.111677,447.173456 800.626782,447.173456 Z M809.272171,447.303547 C810.811589,447.303547 812.025777,446.653089 812.806327,445.65572 L812.806327,447 L815.690025,447 L815.690025,436.028938 L812.806327,436.028938 L812.806327,437.351536 C812.025777,436.354167 810.811589,435.72539 809.272171,435.72539 C806.236699,435.72539 803.851685,438.17545 803.851685,441.514469 C803.851685,444.831806 806.236699,447.303547 809.272171,447.303547 Z M809.770855,444.745078 C807.971254,444.745078 806.69202,443.400798 806.69202,441.492787 C806.69202,439.606458 807.971254,438.28386 809.770855,438.28386 C811.505411,438.28386 812.893055,439.606458 812.893055,441.492787 C812.893055,443.400798 811.505411,444.745078 809.770855,444.745078 Z M764.781968,473.303547 C767.578939,473.303547 769.530313,471.785811 769.530313,469.726027 C769.530313,467.75297 768.099305,467.08083 766.451478,466.603827 L763.719553,465.823277 C763.112459,465.649822 762.808912,465.389639 762.808912,464.956 C762.808912,464.435633 763.481052,463.95863 764.370011,463.95863 C765.519154,463.95863 766.321386,464.544043 766.711661,465.237865 L769.248448,464.500679 C768.554626,462.852851 766.755025,461.72539 764.391693,461.72539 C761.984998,461.72539 759.990259,463.178081 759.990259,465.021046 C759.990259,466.582145 761.139402,467.492787 762.700502,467.948108 L765.497472,468.772021 C766.299704,469.010523 766.711661,469.31407 766.711661,469.856118 C766.711661,470.463213 765.996157,470.983579 764.890378,470.983579 C763.437688,470.983579 762.396955,470.20303 762.028362,469.162296 L759.448211,469.921164 C759.990259,471.699084 762.071726,473.303547 764.781968,473.303547 Z M775.790689,473.173456 C776.70133,473.173456 777.48188,473 778.349158,472.653089 L777.655336,470.333121 C777.221697,470.549941 776.853104,470.636668 776.354419,470.636668 C775.443778,470.636668 775.010139,470.137984 775.010139,469.249024 L775.010139,464.544043 L778.219066,464.544043 L778.219066,462.028938 L775.010139,462.028938 L775.010139,458.473099 L772.126441,458.473099 L772.126441,462.028938 L770.283476,462.028938 L770.283476,464.544043 L772.126441,464.544043 L772.126441,469.249024 C772.126441,471.612356 773.275583,473.173456 775.790689,473.173456 Z M784.891398,473.303547 C788.273781,473.303547 790.745522,470.788442 790.745522,467.514469 C790.745522,464.218814 788.273781,461.72539 784.891398,461.72539 C781.509015,461.72539 779.015592,464.218814 779.015592,467.514469 C779.015592,470.788442 781.509015,473.303547 784.891398,473.303547 Z M784.891398,470.701714 C783.048433,470.701714 781.812563,469.335752 781.812563,467.514469 C781.812563,465.693186 783.048433,464.327223 784.891398,464.327223 C786.712681,464.327223 787.970234,465.693186 787.970234,467.514469 C787.970234,469.335752 786.712681,470.701714 784.891398,470.701714 Z M795.661617,473 L795.661617,468.229973 C795.661617,465.281229 796.940852,464.197132 799.282502,464.565725 L799.282502,461.877164 C797.569628,461.638663 796.312076,462.375849 795.661617,463.655083 L795.661617,462.028938 L792.799601,462.028938 L792.799601,473 L795.661617,473 Z M805.716332,473.303547 C808.600031,473.303547 810.37795,471.612356 811.006726,470.181348 L808.426575,469.42248 C807.992936,470.246393 807.147341,470.87517 805.759696,470.87517 C803.764958,470.87517 802.767588,469.791073 802.572451,468.381746 L811.093454,468.381746 C811.1585,468.034835 811.1585,467.709606 811.1585,467.362695 C811.1585,464.218814 809.098715,461.72539 805.499513,461.72539 C802.052084,461.72539 799.753799,464.240496 799.753799,467.514469 C799.753799,470.983579 802.203858,473.303547 805.716332,473.303547 Z M808.361529,466.582145 L802.572451,466.582145 C802.724225,465.324593 803.808322,464.153768 805.477831,464.153768 C807.190704,464.153768 808.231438,465.237865 808.361529,466.582145 Z M817.527285,473.303547 C820.324255,473.303547 822.27563,471.785811 822.27563,469.726027 C822.27563,467.75297 820.844622,467.08083 819.196794,466.603827 L816.46487,465.823277 C815.857775,465.649822 815.554228,465.389639 815.554228,464.956 C815.554228,464.435633 816.226368,463.95863 817.115328,463.95863 C818.264471,463.95863 819.066703,464.544043 819.456978,465.237865 L821.993765,464.500679 C821.299943,462.852851 819.500341,461.72539 817.13701,461.72539 C814.730314,461.72539 812.735576,463.178081 812.735576,465.021046 C812.735576,466.582145 813.884719,467.492787 815.445818,467.948108 L818.242789,468.772021 C819.045021,469.010523 819.456978,469.31407 819.456978,469.856118 C819.456978,470.463213 818.741473,470.983579 817.635694,470.983579 C816.183004,470.983579 815.142271,470.20303 814.773678,469.162296 L812.193527,469.921164 C812.735576,471.699084 814.817042,473.303547 817.527285,473.303547 Z" id="Datastores" fill="#212529" fill-rule="nonzero"></path>
        <rect id="Rectangle-Copy-6" fill="#ADB5BD" x="914.8" y="372.294385" width="41.4366009" height="41.4366009" rx="20.7183004"></rect>
        <g id="7" fill-rule="nonzero">
            <use fill="black" fill-opacity="1" filter="url(#filter-14)" xlink:href="#path-13"></use>
            <use fill="#FFFFFF" xlink:href="#path-13"></use>
        </g>
        <path d="M919.607708,447.303547 C923.835686,447.303547 926.177336,444.636668 926.177336,440.777283 L926.177336,431.822641 L923.185228,431.822641 L923.185228,440.733919 C923.185228,442.967159 921.992721,444.571623 919.607708,444.571623 C917.244376,444.571623 916.051869,442.967159 916.051869,440.733919 L916.051869,431.822641 L913.038079,431.822641 L913.038079,440.777283 C913.038079,444.636668 915.358047,447.303547 919.607708,447.303547 Z M932.936396,447.303547 C935.733366,447.303547 937.684741,445.785811 937.684741,443.726027 C937.684741,441.75297 936.253733,441.08083 934.605905,440.603827 L931.873981,439.823277 C931.266886,439.649822 930.963339,439.389639 930.963339,438.956 C930.963339,438.435633 931.635479,437.95863 932.524439,437.95863 C933.673582,437.95863 934.475814,438.544043 934.866088,439.237865 L937.402876,438.500679 C936.709054,436.852851 934.909452,435.72539 932.546121,435.72539 C930.139425,435.72539 928.144687,437.178081 928.144687,439.021046 C928.144687,440.582145 929.29383,441.492787 930.854929,441.948108 L933.6519,442.772021 C934.454132,443.010523 934.866088,443.31407 934.866088,443.856118 C934.866088,444.463213 934.150584,444.983579 933.044805,444.983579 C931.592115,444.983579 930.551382,444.20303 930.182789,443.162296 L927.602638,443.921164 C928.144687,445.699084 930.226153,447.303547 932.936396,447.303547 Z M944.920804,447.303547 C947.804502,447.303547 949.582421,445.612356 950.211197,444.181348 L947.631046,443.42248 C947.197407,444.246393 946.351812,444.87517 944.964167,444.87517 C942.969429,444.87517 941.97206,443.791073 941.776922,442.381746 L950.297925,442.381746 C950.362971,442.034835 950.362971,441.709606 950.362971,441.362695 C950.362971,438.218814 948.303186,435.72539 944.703984,435.72539 C941.256555,435.72539 938.95827,438.240496 938.95827,441.514469 C938.95827,444.983579 941.408329,447.303547 944.920804,447.303547 Z M947.566,440.582145 L941.776922,440.582145 C941.928696,439.324593 943.012793,438.153768 944.682302,438.153768 C946.395176,438.153768 947.435909,439.237865 947.566,440.582145 Z M955.279066,447 L955.279066,442.229973 C955.279066,439.281229 956.5583,438.197132 958.89995,438.565725 L958.89995,435.877164 C957.187077,435.638663 955.929524,436.375849 955.279066,437.655083 L955.279066,436.028938 L952.417049,436.028938 L952.417049,447 L955.279066,447 Z M892.451646,473.303547 C893.991064,473.303547 895.205253,472.653089 895.985803,471.65572 L895.985803,473 L898.869501,473 L898.869501,462.028938 L895.985803,462.028938 L895.985803,463.351536 C895.205253,462.354167 893.991064,461.72539 892.451646,461.72539 C889.416175,461.72539 887.031161,464.17545 887.031161,467.514469 C887.031161,470.831806 889.416175,473.303547 892.451646,473.303547 Z M892.950331,470.745078 C891.15073,470.745078 889.871495,469.400798 889.871495,467.492787 C889.871495,465.606458 891.15073,464.28386 892.950331,464.28386 C894.684886,464.28386 896.072531,465.606458 896.072531,467.492787 C896.072531,469.400798 894.684886,470.745078 892.950331,470.745078 Z M906.73434,473.303547 C909.74813,473.303547 911.634459,471.395536 912.068098,469.726027 L909.401219,468.988841 C909.162718,469.899482 908.143666,470.745078 906.712658,470.745078 C904.891375,470.745078 903.72055,469.20566 903.72055,467.492787 C903.72055,465.758232 904.891375,464.262178 906.712658,464.262178 C908.143666,464.262178 909.162718,465.172819 909.401219,466.083461 L912.068098,465.324593 C911.634459,463.676765 909.74813,461.72539 906.712658,461.72539 C903.373639,461.72539 900.901898,464.218814 900.901898,467.492787 C900.901898,470.788442 903.373639,473.303547 906.73434,473.303547 Z M919.195751,473.303547 C922.20954,473.303547 924.095869,471.395536 924.529508,469.726027 L921.862629,468.988841 C921.624128,469.899482 920.605077,470.745078 919.174069,470.745078 C917.352786,470.745078 916.181961,469.20566 916.181961,467.492787 C916.181961,465.758232 917.352786,464.262178 919.174069,464.262178 C920.605077,464.262178 921.624128,465.172819 921.862629,466.083461 L924.529508,465.324593 C924.095869,463.676765 922.20954,461.72539 919.174069,461.72539 C915.83505,461.72539 913.363308,464.218814 913.363308,467.492787 C913.363308,470.788442 915.83505,473.303547 919.195751,473.303547 Z M931.700525,473.303547 C935.082908,473.303547 937.554649,470.788442 937.554649,467.514469 C937.554649,464.218814 935.082908,461.72539 931.700525,461.72539 C928.318142,461.72539 925.824719,464.218814 925.824719,467.514469 C925.824719,470.788442 928.318142,473.303547 931.700525,473.303547 Z M931.700525,470.701714 C929.85756,470.701714 928.621689,469.335752 928.621689,467.514469 C928.621689,465.693186 929.85756,464.327223 931.700525,464.327223 C933.521808,464.327223 934.779361,465.693186 934.779361,467.514469 C934.779361,469.335752 933.521808,470.701714 931.700525,470.701714 Z M943.836706,473.303547 C945.419488,473.303547 946.611995,472.588043 947.349181,471.612356 L947.349181,473 L950.211197,473 L950.211197,462.028938 L947.349181,462.028938 L947.349181,467.427741 C947.349181,469.379116 946.33013,470.636668 944.703984,470.636668 C943.121202,470.636668 942.362334,469.552571 942.362334,467.883062 L942.362334,462.028938 L939.500318,462.028938 L939.500318,468.42511 C939.500318,471.373854 940.953008,473.303547 943.836706,473.303547 Z M955.77775,473 L955.77775,467.579515 C955.77775,465.649822 956.818484,464.392269 958.422947,464.392269 C960.005729,464.392269 960.764597,465.454684 960.764597,467.124194 L960.764597,473 L963.626613,473 L963.626613,466.582145 C963.626613,463.655083 962.173923,461.72539 959.311907,461.72539 C957.729125,461.72539 956.536618,462.440895 955.77775,463.416582 L955.77775,462.028938 L952.915734,462.028938 L952.915734,473 L955.77775,473 Z M970.624175,473.173456 C971.534816,473.173456 972.315366,473 973.182644,472.653089 L972.488821,470.333121 C972.055183,470.549941 971.68659,470.636668 971.187905,470.636668 C970.277263,470.636668 969.843625,470.137984 969.843625,469.249024 L969.843625,464.544043 L973.052552,464.544043 L973.052552,462.028938 L969.843625,462.028938 L969.843625,458.473099 L966.959926,458.473099 L966.959926,462.028938 L965.116961,462.028938 L965.116961,464.544043 L966.959926,464.544043 L966.959926,469.249024 C966.959926,471.612356 968.109069,473.173456 970.624175,473.173456 Z M979.291245,473.303547 C982.088216,473.303547 984.03959,471.785811 984.03959,469.726027 C984.03959,467.75297 982.608582,467.08083 980.960755,466.603827 L978.22883,465.823277 C977.621736,465.649822 977.318189,465.389639 977.318189,464.956 C977.318189,464.435633 977.990329,463.95863 978.879288,463.95863 C980.028431,463.95863 980.830663,464.544043 981.220938,465.237865 L983.757725,464.500679 C983.063903,462.852851 981.264302,461.72539 978.90097,461.72539 C976.494275,461.72539 974.499536,463.178081 974.499536,465.021046 C974.499536,466.582145 975.648679,467.492787 977.209779,467.948108 L980.006749,468.772021 C980.808981,469.010523 981.220938,469.31407 981.220938,469.856118 C981.220938,470.463213 980.505434,470.983579 979.399655,470.983579 C977.946965,470.983579 976.906232,470.20303 976.537639,469.162296 L973.957488,469.921164 C974.499536,471.699084 976.581003,473.303547 979.291245,473.303547 Z" id="Useraccounts" fill="#212529" fill-rule="nonzero"></path>
        <rect id="Rectangle-Copy-7" fill="#4263EB" x="1048" y="356.569044" width="64.4569347" height="64.4569347" rx="32.2284674"></rect>
        <g id="8" fill-rule="nonzero">
            <use fill="black" fill-opacity="1" filter="url(#filter-16)" xlink:href="#path-15"></use>
            <use fill="#FFFFFF" xlink:href="#path-15"></use>
        </g>
        <path d="M26.0881105,450 L26.0881105,442.917232 L33.7972452,442.917232 L33.7972452,450 L37.1218095,450 L37.1218095,433.136268 L33.7972452,433.136268 L33.7972452,439.929943 L26.0881105,439.929943 L26.0881105,433.136268 L22.7876372,433.136268 L22.7876372,450 L26.0881105,450 Z M47.8841674,450 L47.8841674,436.123558 L53.5455632,436.123558 L53.5455632,433.136268 L38.9222982,433.136268 L38.9222982,436.123558 L44.5836941,436.123558 L44.5836941,450 L47.8841674,450 Z M58.6465252,450 L58.6465252,438.894028 L64.0188284,446.338161 L69.3911317,438.894028 L69.3911317,450 L72.691605,450 L72.691605,433.136268 L69.535678,433.136268 L64.0188284,441.110404 L58.5019789,433.136268 L55.3460519,433.136268 L55.3460519,450 L58.6465252,450 Z M87.4048944,450 L87.4048944,446.964528 L78.9971193,446.964528 L78.9971193,433.136268 L75.696646,433.136268 L75.696646,450 L87.4048944,450 Z M100.377289,450.337275 C102.376846,450.337275 104.08731,449.566361 105.412317,448.409991 L106.905962,450 L110.784621,450 L107.31551,446.289979 C108.206879,444.94088 108.785064,443.495418 109.025974,442.290865 L106.231413,441.495861 C106.038684,442.363138 105.70141,443.254507 105.24368,444.073603 L101.027747,439.568577 C100.545926,439.062665 99.8954678,438.364025 99.8954678,437.520838 C99.8954678,436.41265 100.762745,435.617646 101.991389,435.617646 C103.195941,435.617646 103.990946,436.388559 104.280038,437.56902 L107.122782,436.749925 C106.785507,434.678095 104.858223,432.798993 102.063662,432.798993 C98.955917,432.798993 96.7636318,434.485366 96.7636318,437.472656 C96.7636318,438.677208 97.2936348,439.616759 98.0645483,440.532219 C95.9686273,441.760862 94.9568033,443.567691 94.9568033,445.39861 C94.9568033,448.409991 97.4622721,450.337275 100.377289,450.337275 Z M100.714563,447.446349 C99.1245543,447.446349 98.1368214,446.362252 98.1368214,445.1577 C98.1368214,444.121785 98.6909155,443.302689 99.8954678,442.555867 L103.460943,446.338161 C102.641847,447.01271 101.702296,447.446349 100.714563,447.446349 Z M50.771923,479.337275 C55.2287665,479.337275 58.0715099,476.614986 58.8424234,473.916789 L55.6383143,473.097694 C55.0842202,474.759976 53.2773918,476.22953 50.7237409,476.22953 C47.3991766,476.22953 45.2791645,473.555424 45.2791645,470.519952 C45.2791645,467.48448 47.3991766,464.906738 50.7237409,464.906738 C53.2773918,464.906738 55.0842202,466.424474 55.6383143,468.062665 L58.8665145,467.267661 C58.095601,464.593554 55.2528576,461.798993 50.6996499,461.798993 C45.6887123,461.798993 41.9064181,465.581287 41.9064181,470.544043 C41.9064181,475.530889 45.6887123,479.337275 50.771923,479.337275 Z M67.7979528,479.337275 C71.8452485,479.337275 74.5434457,477.000443 74.5434457,474.109518 C74.5434457,471.363138 72.5920709,470.279041 70.014329,469.484037 L65.822487,468.134938 C64.7142989,467.797664 64.2083869,467.291752 64.2083869,466.544929 C64.2083869,465.557196 65.268393,464.71401 66.9306751,464.71401 C68.8338678,464.71401 70.3997858,465.653561 71.0984261,467.02675 L74.1579889,466.135381 C73.2425292,463.79855 70.544332,461.798993 66.9065841,461.798993 C63.3892914,461.798993 60.8356405,464.015369 60.8597315,466.641293 C60.8356405,468.809488 62.4497406,470.230859 64.6661168,470.9295 L68.978414,472.278598 C70.5925141,472.808601 71.1947903,473.410877 71.1947903,474.302246 C71.1947903,475.410434 69.9661469,476.422258 67.9906812,476.422258 C65.5574855,476.422258 63.8470213,475.024977 63.172472,473.266331 L60.0165449,474.229973 C60.9560957,476.855897 63.6783839,479.337275 67.7979528,479.337275 Z M83.450793,479.337275 C87.4980887,479.337275 90.1962858,477.000443 90.1962858,474.109518 C90.1962858,471.363138 88.2449111,470.279041 85.6671692,469.484037 L81.4753272,468.134938 C80.3671391,467.797664 79.8612271,467.291752 79.8612271,466.544929 C79.8612271,465.557196 80.9212331,464.71401 82.5835153,464.71401 C84.4867079,464.71401 86.0526259,465.653561 86.7512663,467.02675 L89.8108291,466.135381 C88.8953693,463.79855 86.1971722,461.798993 82.5594243,461.798993 C79.0421315,461.798993 76.4884807,464.015369 76.5125717,466.641293 C76.4884807,468.809488 78.1025807,470.230859 80.318957,470.9295 L84.6312542,472.278598 C86.2453543,472.808601 86.8476304,473.410877 86.8476304,474.302246 C86.8476304,475.410434 85.6189871,476.422258 83.6435213,476.422258 C81.2103257,476.422258 79.4998614,475.024977 78.8253121,473.266331 L75.6693851,474.229973 C76.6089359,476.855897 79.3312241,479.337275 83.450793,479.337275 Z" id="HTML&amp;CSS" fill="#212529" fill-rule="nonzero"></path>
        <path d="M1036.93535,450 C1041.89811,450 1045.00585,446.434525 1045.00585,441.568134 C1045.00585,436.605378 1041.84993,433.136268 1036.93535,433.136268 L1029.61168,433.136268 L1029.61168,450 L1036.93535,450 Z M1036.86308,447.01271 L1032.88806,447.01271 L1032.88806,436.099466 L1036.86308,436.099466 C1039.75401,436.099466 1041.68129,438.291752 1041.68129,441.495861 C1041.68129,444.748152 1039.75401,447.01271 1036.86308,447.01271 Z M1052.2991,455.05912 L1059.62278,437.809931 L1056.22594,437.809931 L1052.8291,446.049068 L1049.21545,437.809931 L1045.72225,437.809931 L1051.23909,449.734998 L1049.02272,455.05912 L1052.2991,455.05912 Z M1064.14556,450 L1064.14556,443.977239 C1064.14556,441.833135 1065.30193,440.435855 1067.08466,440.435855 C1068.84331,440.435855 1069.6865,441.616316 1069.6865,443.471327 L1069.6865,450 L1072.86651,450 L1072.86651,442.86905 C1072.86651,439.616759 1071.25241,437.472656 1068.0724,437.472656 C1066.31375,437.472656 1064.98874,438.267661 1064.14556,439.351758 L1064.14556,437.809931 L1060.96554,437.809931 L1060.96554,450 L1064.14556,450 Z M1081.02704,450.337275 C1082.7375,450.337275 1084.0866,449.614543 1084.95388,448.506355 L1084.95388,450 L1088.15799,450 L1088.15799,437.809931 L1084.95388,437.809931 L1084.95388,439.279485 C1084.0866,438.171296 1082.7375,437.472656 1081.02704,437.472656 C1077.65429,437.472656 1075.00428,440.194944 1075.00428,443.904965 C1075.00428,447.590895 1077.65429,450.337275 1081.02704,450.337275 Z M1081.58113,447.494531 C1079.58158,447.494531 1078.1602,446.000886 1078.1602,443.880874 C1078.1602,441.784953 1079.58158,440.3154 1081.58113,440.3154 C1083.50842,440.3154 1085.05024,441.784953 1085.05024,443.880874 C1085.05024,446.000886 1083.50842,447.494531 1081.58113,447.494531 Z M1094.34305,450 L1094.34305,443.880874 C1094.34305,441.736771 1095.25851,440.435855 1096.96897,440.435855 C1098.60716,440.435855 1099.25762,441.616316 1099.25762,443.423144 L1099.25762,450 L1102.46173,450 L1102.46173,443.78451 C1102.46173,441.71268 1103.32901,440.435855 1105.03947,440.435855 C1106.70175,440.435855 1107.3763,441.592225 1107.3763,443.423144 L1107.3763,450 L1110.55632,450 L1110.55632,442.748595 C1110.55632,439.351758 1108.65313,437.472656 1105.73811,437.472656 C1103.78674,437.472656 1102.41355,438.291752 1101.61854,439.303576 C1100.87172,438.147205 1099.66717,437.472656 1097.9567,437.472656 C1096.3426,437.472656 1095.13805,438.219479 1094.34305,439.255393 L1094.34305,437.809931 L1091.16303,437.809931 L1091.16303,450 L1094.34305,450 Z M1115.05501,436.099466 C1116.11501,436.099466 1116.9582,435.280371 1116.9582,434.220365 C1116.9582,433.208541 1116.11501,432.389445 1115.05501,432.389445 C1113.995,432.389445 1113.15182,433.208541 1113.15182,434.220365 C1113.15182,435.280371 1113.995,436.099466 1115.05501,436.099466 Z M1116.62093,450 L1116.62093,437.809931 L1113.41682,437.809931 L1113.41682,450 L1116.62093,450 Z M1125.40782,450.337275 C1128.75647,450.337275 1130.85239,448.217263 1131.33422,446.362252 L1128.37102,445.543156 C1128.10602,446.55498 1126.97374,447.494531 1125.38373,447.494531 C1123.36008,447.494531 1122.05916,445.784067 1122.05916,443.880874 C1122.05916,441.953591 1123.36008,440.291308 1125.38373,440.291308 C1126.97374,440.291308 1128.10602,441.303132 1128.37102,442.314956 L1131.33422,441.47177 C1130.85239,439.64085 1128.75647,437.472656 1125.38373,437.472656 C1121.67371,437.472656 1118.92733,440.243126 1118.92733,443.880874 C1118.92733,447.542713 1121.67371,450.337275 1125.40782,450.337275 Z M1036.93535,479 L1039.44082,471.314956 L1041.94629,479 L1044.90949,479 L1049.12542,466.809931 L1045.82495,466.809931 L1043.29539,474.976795 L1040.76583,466.809931 L1038.09172,466.809931 L1035.58625,474.976795 L1033.05669,466.809931 L1029.75622,466.809931 L1033.94806,479 L1036.93535,479 Z M1056.12958,479.337275 C1059.33369,479.337275 1061.30915,477.458173 1062.00779,475.868164 L1059.14096,475.024977 C1058.65914,475.940437 1057.71959,476.639077 1056.17776,476.639077 C1053.96138,476.639077 1052.85319,475.434525 1052.63638,473.868607 L1062.10416,473.868607 C1062.17643,473.48315 1062.17643,473.121785 1062.17643,472.736328 C1062.17643,469.243126 1059.88778,466.472656 1055.88867,466.472656 C1052.05819,466.472656 1049.50454,469.267217 1049.50454,472.904965 C1049.50454,476.759533 1052.22683,479.337275 1056.12958,479.337275 Z M1059.06868,471.86905 L1052.63638,471.86905 C1052.80501,470.47177 1054.00957,469.170853 1055.86458,469.170853 C1057.76777,469.170853 1058.92414,470.375406 1059.06868,471.86905 Z M1071.58969,479.337275 C1074.96244,479.337275 1077.58836,476.590895 1077.58836,472.904965 C1077.58836,469.194944 1074.96244,466.472656 1071.58969,466.472656 C1069.85513,466.472656 1068.53013,467.171296 1067.63876,468.279485 L1067.63876,461.413536 L1064.45874,461.413536 L1064.45874,479 L1067.63876,479 L1067.63876,477.506355 C1068.53013,478.614543 1069.85513,479.337275 1071.58969,479.337275 Z M1071.03559,476.494531 C1069.10831,476.494531 1067.56648,475.000886 1067.56648,472.880874 C1067.56648,470.784953 1069.10831,469.3154 1071.03559,469.3154 C1073.03515,469.3154 1074.45652,470.784953 1074.45652,472.880874 C1074.45652,475.000886 1073.03515,476.494531 1071.03559,476.494531 Z M1090.94621,479.337275 C1092.65667,479.337275 1094.00577,478.614543 1094.87305,477.506355 L1094.87305,479 L1098.07716,479 L1098.07716,466.809931 L1094.87305,466.809931 L1094.87305,468.279485 C1094.00577,467.171296 1092.65667,466.472656 1090.94621,466.472656 C1087.57346,466.472656 1084.92345,469.194944 1084.92345,472.904965 C1084.92345,476.590895 1087.57346,479.337275 1090.94621,479.337275 Z M1091.5003,476.494531 C1089.50075,476.494531 1088.07938,475.000886 1088.07938,472.880874 C1088.07938,470.784953 1089.50075,469.3154 1091.5003,469.3154 C1093.42759,469.3154 1094.96942,470.784953 1094.96942,472.880874 C1094.96942,475.000886 1093.42759,476.494531 1091.5003,476.494531 Z M1104.26222,484.05912 L1104.26222,477.506355 C1105.15359,478.614543 1106.4786,479.337275 1108.21315,479.337275 C1111.5859,479.337275 1114.21182,476.590895 1114.21182,472.904965 C1114.21182,469.194944 1111.5859,466.472656 1108.21315,466.472656 C1106.4786,466.472656 1105.15359,467.171296 1104.26222,468.279485 L1104.26222,466.809931 L1101.0822,466.809931 L1101.0822,484.05912 L1104.26222,484.05912 Z M1107.65906,476.494531 C1105.73177,476.494531 1104.18995,475.000886 1104.18995,472.880874 C1104.18995,470.784953 1105.73177,469.3154 1107.65906,469.3154 C1109.65861,469.3154 1111.07999,470.784953 1111.07999,472.880874 C1111.07999,475.000886 1109.65861,476.494531 1107.65906,476.494531 Z M1119.67415,484.05912 L1119.67415,477.506355 C1120.56552,478.614543 1121.89053,479.337275 1123.62508,479.337275 C1126.99783,479.337275 1129.62375,476.590895 1129.62375,472.904965 C1129.62375,469.194944 1126.99783,466.472656 1123.62508,466.472656 C1121.89053,466.472656 1120.56552,467.171296 1119.67415,468.279485 L1119.67415,466.809931 L1116.49413,466.809931 L1116.49413,484.05912 L1119.67415,484.05912 Z M1123.07099,476.494531 C1121.1437,476.494531 1119.60188,475.000886 1119.60188,472.880874 C1119.60188,470.784953 1121.1437,469.3154 1123.07099,469.3154 C1125.07054,469.3154 1126.49191,470.784953 1126.49191,472.880874 C1126.49191,475.000886 1125.07054,476.494531 1123.07099,476.494531 Z" id="Dynamicwebapp" fill="#212529" fill-rule="nonzero"></path>
    </g>
</svg>