<?xml version="1.0" standalone="no"?>
<!DOCTYPE svg PUBLIC "-//W3C//DTD SVG 20010904//EN"
 "http://www.w3.org/TR/2001/REC-SVG-20010904/DTD/svg10.dtd">
<svg version="1.0" xmlns="http://www.w3.org/2000/svg"
 width="700.000000pt" height="700.000000pt" viewBox="0 0 700.000000 700.000000"
 preserveAspectRatio="xMidYMid meet">
<metadata>
Created by potrace 1.11, written by Peter Selinger 2001-2013
</metadata>
<g transform="translate(0.000000,700.000000) scale(0.100000,-0.100000)"
fill="#000000" stroke="none">
<path d="M3373 6146 c-36 -17 -95 -67 -186 -155 l-134 -131 -826 -2 -827 -3
-29 -30 c-25 -25 -106 -232 -450 -1152 -231 -618 -423 -1134 -427 -1147 -4
-19 1 -32 20 -50 l25 -26 576 0 c316 0 575 -2 575 -5 0 -2 -99 -291 -220 -641
-121 -350 -220 -642 -220 -648 0 -7 6 -21 14 -32 14 -18 34 -19 459 -24 l444
-5 -163 -515 c-90 -283 -163 -529 -164 -547 0 -20 9 -42 24 -60 l24 -28 1540
-3 1540 -2 30 25 c16 14 33 36 36 50 4 16 -40 206 -124 539 -71 282 -130 521
-130 530 0 14 40 16 416 16 250 0 423 4 434 10 10 5 20 20 24 34 4 17 -59 216
-209 662 -118 350 -215 639 -215 641 0 1 278 3 619 3 610 0 619 0 645 21 14
11 26 28 26 38 0 19 -810 2243 -834 2290 -34 64 10 61 -923 61 l-848 0 -125
126 c-156 156 -187 176 -289 181 -65 4 -83 1 -128 -21z m-823 -793 c-67 -75
-92 -129 -92 -204 0 -101 70 -197 169 -230 46 -15 139 -7 184 16 19 10 118
101 222 203 l187 186 0 -711 0 -711 -1050 0 c-577 1 -1050 4 -1050 8 0 4 124
337 275 741 151 404 277 740 280 747 3 9 106 12 465 12 l462 0 -52 -57z m3075
-693 c150 -410 271 -748 269 -751 -2 -4 -486 -6 -1075 -5 l-1070 1 -6 720 -5
720 199 -197 c210 -209 250 -237 332 -238 74 0 122 20 178 76 55 55 73 97 73
174 -1 64 -32 126 -98 193 l-57 57 494 -2 494 -3 272 -745z m-2405 -1653 l0
-444 -672 -6 c-369 -4 -674 -5 -676 -2 -3 2 64 205 149 450 l154 445 522 0
523 0 0 -443z m1678 -4 c83 -246 150 -448 149 -450 -2 -1 -293 1 -648 4 l-646
6 -6 270 c-4 149 -7 348 -7 444 l0 173 504 0 503 0 151 -447z m-1678 -960 c0
-76 13 -121 53 -180 106 -157 362 -133 443 42 18 38 24 68 24 123 l0 72 283
-2 282 -3 87 -344 c48 -190 84 -349 82 -353 -3 -4 -464 -8 -1025 -8 -872 0
-1019 2 -1019 14 0 15 207 672 216 688 3 4 133 8 290 8 l284 0 0 -57z"/>
</g>
</svg>
